<?xml version="1.0" encoding="utf-8"?><!DOCTYPE svg  PUBLIC '-//W3C//DTD SVG 1.1//EN'  'http://www.w3.org/Graphics/SVG/1.1/DTD/svg11.dtd'><svg enable_background="new 0 0 552 501" height="501px" pretty_print="False" style="stroke-linejoin: round; stroke:#000; fill: none;" version="1.1" viewBox="0 0 552 501" width="552px" xmlns="http://www.w3.org/2000/svg" xmlns:xlink="http://www.w3.org/1999/xlink"><defs><style type="text/css"><![CDATA[path { fill-rule: evenodd; }]]></style></defs><metadata><views><view h="501" padding="0" w="552.777910777"><proj id="laea" lat0="46.7112985398" lon0="1.54554722425"/><bbox h="110.29" w="121.93" x="939.03" y="943.73"/></view></views></metadata><g class="" id="departemement"><path d="M348.1,350.9L348.2,350.9L352.8,359.4L359.8,355.9L368.3,363.1L368.3,363.1L368.3,363.1L379.9,355.3L385.5,346.6L388.3,345.6L391.9,335.0L391.9,334.8L391.7,334.7L378.3,327.0L375.2,329.6L368.7,328.8L368.7,328.8L368.7,328.8L357.8,330.2L347.3,325.7L337.5,329.7L337.5,329.7L337.6,329.7L347.6,343.5L345.6,347.6L347.8,350.8L348.1,350.9Z "/><path d="M313.3,308.7L313.3,308.7L312.2,316.6L313.3,318.1L314.0,322.9L314.1,323.2L314.1,323.1L318.5,323.7L328.7,328.3L337.5,329.7L337.5,329.7L337.5,329.7L347.3,325.7L357.8,330.2L368.7,328.8L368.7,328.8L368.7,328.8L371.5,323.6L370.2,318.3L359.9,297.0L359.8,297.0L359.7,296.8L350.9,292.9L349.0,289.3L339.3,290.0L331.2,286.5L328.3,279.7L315.9,286.0L315.9,286.0L315.9,286.0L317.7,295.6L310.3,303.4L313.3,308.7L313.3,308.7Z "/><path d="M289.8,386.9L289.8,386.9L290.2,394.1L294.2,397.6L294.2,397.6L294.2,397.5L298.4,395.3L306.0,397.7L322.3,419.9L330.4,419.9L332.6,422.4L332.5,422.5L332.5,422.5L337.6,422.5L337.0,416.3L349.3,409.9L349.3,409.9L349.3,409.9L352.7,404.8L345.3,400.1L349.6,395.7L349.6,395.6L349.6,395.5L342.9,394.5L333.5,369.4L333.5,369.4L333.5,369.4L326.5,357.0L322.9,354.0L313.6,369.4L302.7,371.4L302.7,371.5L302.7,371.5L291.8,377.6L288.1,379.3L289.8,386.9L289.8,386.9Z "/><path d="M333.5,369.4L342.9,394.5L349.6,395.5L349.6,395.6L349.7,395.6L360.0,398.1L360.2,395.0L369.8,397.5L374.1,378.8L374.1,378.8L374.1,378.8L372.0,372.5L368.3,363.1L368.3,363.1L368.3,363.1L359.8,355.9L352.8,359.4L348.2,350.9L348.1,350.9L348.1,351.0L342.9,355.9L338.0,355.8L333.5,369.4L333.5,369.4L333.5,369.4Z "/><path d="M276.8,410.5L276.8,410.5L283.8,424.5L283.4,427.2L295.9,437.2L296.0,437.3L296.4,437.4L303.7,440.0L305.0,436.6L317.8,437.9L317.8,437.9L317.8,437.9L321.6,432.1L320.9,424.6L330.1,425.3L332.5,422.5L332.5,422.5L332.6,422.4L330.4,419.9L322.3,419.9L306.0,397.7L298.4,395.3L294.2,397.5L294.2,397.6L294.2,397.6L280.7,399.8L280.2,406.4L276.8,410.5L276.8,410.5Z "/><path d="M213.9,343.8L213.9,343.8L216.1,350.6L213.9,357.8L226.4,359.6L226.9,363.0L226.9,363.0L226.9,363.0L229.0,367.7L246.3,367.5L247.8,370.6L257.7,373.6L257.7,373.7L257.7,373.7L267.3,364.3L266.6,361.5L272.5,349.0L272.5,349.0L272.0,348.5L264.5,332.1L267.7,328.9L264.9,325.3L264.9,325.3L264.9,325.3L256.0,316.0L247.3,316.7L240.7,310.0L240.7,310.0L240.7,310.0L226.7,325.9L225.6,329.6L215.8,338.8L215.8,338.8L215.8,338.8L214.1,341.6L213.9,343.8L213.9,343.8Z "/><path d="M204.0,428.3L204.0,428.3L205.6,428.4L206.7,427.7L209.9,428.6L209.9,428.6L209.9,428.6L213.6,428.0L219.7,438.6L227.1,442.2L238.0,444.1L238.2,444.2L238.2,444.2L245.3,438.6L252.8,440.1L258.8,430.6L252.5,417.9L252.5,417.7L252.5,417.7L244.8,408.9L247.0,404.4L244.2,402.1L244.1,402.1L244.1,402.2L241.1,404.4L217.3,406.4L217.3,406.4L217.3,406.4L213.4,409.2L207.0,408.6L204.1,428.2L204.0,428.3Z "/><path d="M209.3,393.9L216.8,404.0L217.3,406.3L217.3,406.4L217.3,406.4L241.1,404.4L244.1,402.2L244.1,402.1L244.1,402.1L250.1,386.9L251.4,384.4L257.2,384.8L257.2,384.8L257.2,384.7L255.7,379.8L255.2,375.9L257.7,373.7L257.7,373.7L257.7,373.6L247.8,370.6L246.3,367.5L229.0,367.7L226.9,363.0L226.9,363.0L226.9,363.0L214.2,378.0L211.9,391.5L209.4,392.3L208.9,392.6L209.3,393.9Z "/><path d="M244.1,402.1L244.2,402.1L247.0,404.4L244.8,408.9L252.5,417.7L252.5,417.7L252.5,417.7L264.3,418.3L268.9,416.1L276.8,410.5L276.8,410.5L276.8,410.5L280.2,406.4L280.7,399.8L294.2,397.6L294.2,397.6L294.2,397.6L290.2,394.1L289.8,386.9L289.8,386.9L289.8,386.9L280.5,390.5L274.9,390.7L268.9,394.4L265.9,389.7L257.2,384.8L257.2,384.8L257.2,384.8L251.4,384.4L250.1,386.9L244.1,402.1L244.1,402.1Z "/><path d="M257.2,384.8L257.2,384.8L265.9,389.7L268.9,394.4L274.9,390.7L280.5,390.5L289.8,386.9L289.8,386.9L289.8,386.9L288.1,379.3L291.8,377.6L302.7,371.5L302.7,371.5L302.6,371.4L301.0,361.3L296.8,351.4L296.8,351.4L296.8,351.4L280.4,348.5L272.6,349.1L272.5,349.0L272.5,349.0L266.6,361.5L267.3,364.3L257.7,373.7L257.7,373.7L257.7,373.7L255.2,375.9L255.7,379.8L257.2,384.7L257.2,384.8Z "/><path d="M272.5,349.0L272.6,349.1L280.4,348.5L296.8,351.4L296.8,351.4L296.9,351.4L301.1,345.2L303.6,335.5L314.1,323.5L314.1,323.2L314.0,322.9L313.3,318.1L312.2,316.6L313.3,308.7L313.3,308.7L313.1,308.7L304.7,312.6L296.2,307.5L290.2,311.1L290.2,311.1L290.2,311.1L274.4,319.4L271.0,320.7L264.9,325.3L264.9,325.3L264.9,325.3L267.7,328.9L264.5,332.1L272.0,348.5L272.5,349.0Z "/><path d="M240.7,310.0L247.3,316.7L256.0,316.0L264.9,325.3L264.9,325.3L264.9,325.3L271.0,320.7L274.4,319.4L290.2,311.1L290.2,311.1L290.2,311.1L289.6,306.0L275.2,297.3L271.4,274.9L271.4,274.9L271.2,274.7L268.6,271.9L262.2,272.8L262.2,272.8L262.2,272.8L258.5,274.2L249.4,280.4L248.5,287.0L248.4,287.0L248.2,287.1L252.8,296.7L248.0,302.1L240.7,310.0L240.7,310.0L240.7,310.0Z "/><path d="M215.8,338.8L215.8,338.8L225.6,329.6L226.7,325.9L240.7,310.0L240.7,310.0L240.7,310.0L248.0,302.1L252.8,296.7L248.2,287.1L248.4,287.0L248.4,286.9L244.2,286.4L241.4,289.0L224.2,288.5L224.2,288.5L224.2,288.5L215.0,290.8L215.6,292.0L212.4,295.3L212.4,295.3L212.4,295.3L207.5,305.9L198.2,307.2L200.8,314.4L205.9,320.3L203.5,328.2L204.9,332.4L215.7,338.8L215.8,338.8Z "/><path d="M161.4,145.4L173.3,150.6L179.6,152.6L179.6,152.6L179.6,152.6L181.9,153.7L187.4,153.2L187.4,153.2L187.4,153.2L191.6,147.8L188.5,139.3L188.5,139.3L188.5,139.3L182.1,127.3L187.1,124.5L187.7,120.4L178.8,110.1L179.5,105.9L179.5,105.9L173.0,94.3L172.5,85.6L163.9,87.9L150.5,85.1L153.7,89.6L158.3,107.1L161.6,115.3L160.4,133.5L164.6,142.1L161.7,145.3L161.4,145.4Z M152.1,130.9L152.7,131.5L152.7,131.3L152.1,130.9Z M161.0,86.8L162.1,86.8L162.8,87.0L161.0,86.8Z M175.2,92.1L175.6,92.1L175.5,92.0L175.2,92.1Z M163.3,87.1L163.4,87.2L163.7,86.9L163.3,87.1Z M163.5,144.9L163.7,144.9L163.6,144.8L163.5,144.9Z M151.1,130.5L151.1,130.6L151.1,130.5L151.1,130.5Z M153.2,131.0L153.3,131.0L153.3,131.0L153.2,131.0Z M152.0,130.9L152.0,130.9L152.0,131.0L152.0,130.9Z M150.2,83.7L150.3,83.7L150.3,83.7L150.2,83.7Z M163.0,122.8L163.2,122.7L163.3,122.7L163.0,122.8Z M153.6,131.0L153.7,131.0L153.7,130.9L153.6,131.0Z M153.5,131.0L153.5,131.0L153.5,131.0L153.5,131.0Z M150.3,84.1L150.3,84.1L150.3,84.1L150.3,84.1Z M152.9,130.5L152.9,130.5L152.9,130.5L152.9,130.5Z M178.7,97.3L178.8,97.3L178.8,97.2L178.7,97.3Z M152.3,130.2L152.3,130.3L152.3,130.2L152.3,130.2Z M153.2,131.2L153.3,131.4L153.3,131.2L153.2,131.2Z M153.7,131.0L153.7,131.0L153.7,131.0L153.7,131.0Z M152.9,130.9L152.9,130.9L152.9,130.9L152.9,130.9Z M152.6,130.4L152.7,130.5L152.7,130.4L152.6,130.4Z M153.2,130.9L153.2,131.0L153.3,131.0L153.2,130.9Z M151.5,130.9L151.6,130.8L151.6,130.8L151.5,130.9Z M153.0,131.0L153.0,131.0L153.0,131.0L153.0,131.0Z M152.7,129.9L152.7,130.0L152.8,130.0L152.7,129.9Z M153.5,130.3L153.5,130.3L153.5,130.3L153.5,130.3Z M152.8,131.0L152.8,131.0L152.9,131.0L152.8,131.0Z M152.6,130.9L152.7,131.0L152.6,131.0L152.6,130.9Z M150.3,83.7L150.3,83.7L150.3,83.7L150.3,83.7Z M152.1,131.3L152.1,131.3L152.1,131.3L152.1,131.3Z M153.6,130.6L153.6,130.6L153.6,130.6L153.6,130.6Z M151.3,130.8L151.4,130.8L151.4,130.8L151.3,130.8Z M150.3,84.1L150.3,84.1L150.3,84.1L150.3,84.1Z M152.8,130.4L152.8,130.4L152.8,130.4L152.8,130.4Z M153.2,130.3L153.2,130.3L153.2,130.3L153.2,130.3Z M154.6,131.3L154.6,131.3L154.7,131.3L154.6,131.3Z M152.0,131.1L152.1,131.1L152.1,131.1L152.0,131.1Z M150.0,83.6L150.1,83.7L150.1,83.6L150.0,83.6Z M150.0,84.6L150.0,84.6L150.0,84.6L150.0,84.6Z M175.5,92.4L175.5,92.3L175.5,92.3L175.5,92.4Z M152.1,130.0L152.2,130.0L152.2,129.9L152.1,130.0Z M150.2,84.2L150.2,84.2L150.2,84.2L150.2,84.2Z M150.2,84.5L150.2,84.5L150.2,84.5L150.2,84.5Z M150.2,84.4L150.2,84.4L150.2,84.4L150.2,84.4Z M154.6,131.4L154.7,131.4L154.7,131.4L154.6,131.4Z M151.2,130.6L151.2,130.6L151.2,130.6L151.2,130.6Z M153.3,130.4L153.3,130.4L153.3,130.4L153.3,130.4Z M153.0,131.2L153.0,131.2L153.1,131.2L153.0,131.2Z M152.9,131.1L152.9,131.2L152.9,131.2L152.9,131.1Z M150.2,84.2L150.2,84.2L150.2,84.2L150.2,84.2Z M150.2,84.1L150.2,84.1L150.2,84.1L150.2,84.1Z M151.6,130.8L151.7,130.8L151.7,130.8L151.6,130.8Z "/><path d="M204.0,195.1L204.0,195.1L202.2,192.4L208.6,178.2L210.1,178.6L217.0,160.7L217.0,160.7L217.0,160.6L213.0,153.2L195.0,156.7L187.4,153.2L187.4,153.2L187.4,153.2L181.9,153.7L179.6,152.6L179.6,152.6L179.6,152.6L178.1,167.1L180.5,180.0L172.0,191.4L172.0,191.4L172.0,191.4L194.9,196.1L204.0,195.1L204.0,195.1Z "/><path d="M234.8,129.3L234.8,129.3L247.9,141.3L246.4,143.2L249.5,145.0L249.5,145.0L249.5,145.0L260.6,138.8L264.5,139.9L274.8,130.1L274.8,130.1L274.9,129.8L273.2,124.9L278.7,122.4L278.7,122.4L278.7,122.4L281.2,115.0L282.2,113.8L282.2,113.8L282.2,113.8L282.5,112.0L282.5,103.9L282.5,103.9L282.5,103.9L270.5,101.3L258.4,111.5L255.1,111.3L246.0,103.8L233.4,101.8L233.5,102.0L232.1,102.3L231.2,102.4L231.0,102.4L232.1,112.3L234.9,129.3L234.8,129.3Z "/><path d="M204.0,195.1L204.0,195.1L205.4,197.5L214.0,202.3L226.8,204.0L226.9,204.1L226.9,204.0L231.0,205.5L241.5,199.5L241.4,199.5L241.4,199.5L249.1,188.5L250.1,180.8L250.1,176.8L250.1,176.7L250.1,176.7L251.7,175.0L250.2,173.3L248.5,171.7L248.6,171.6L248.4,171.7L225.7,156.2L221.4,160.8L217.1,160.7L217.0,160.7L217.0,160.7L210.1,178.6L208.6,178.2L202.2,192.4L204.0,195.1L204.0,195.1Z "/><path d="M233.4,101.8L246.0,103.8L255.1,111.3L258.4,111.5L270.5,101.3L282.5,103.9L282.5,103.9L282.5,103.9L282.6,98.7L281.8,93.2L285.0,84.4L285.0,84.4L285.0,84.4L282.3,77.1L280.7,75.3L270.5,67.3L270.4,67.3L257.6,75.6L241.3,79.2L233.5,84.2L223.0,96.6L223.9,99.6L233.4,101.7L233.4,101.8Z "/><path d="M188.5,139.3L188.5,139.3L204.6,133.1L206.9,135.9L214.4,135.3L221.8,131.6L234.8,129.2L234.8,129.3L234.9,129.3L232.1,112.3L231.0,102.4L230.9,102.4L211.8,110.4L199.8,106.4L186.8,103.7L179.6,105.9L179.5,105.9L178.8,110.1L187.7,120.4L187.1,124.5L182.1,127.3L188.5,139.3L188.5,139.3Z M225.1,102.4L225.1,102.4L225.2,102.4L225.1,102.4Z M203.7,133.4L203.8,133.5L203.9,133.5L203.7,133.4Z "/><path d="M187.4,153.2L187.4,153.2L195.0,156.7L213.0,153.2L217.0,160.6L217.0,160.7L217.1,160.7L221.4,160.8L225.7,156.2L248.4,171.7L248.6,171.6L248.6,171.6L254.3,160.2L249.4,145.1L249.5,145.0L249.5,145.0L246.4,143.2L247.9,141.3L234.8,129.3L234.8,129.3L234.8,129.2L221.8,131.6L214.4,135.3L206.9,135.9L204.6,133.1L188.5,139.3L188.5,139.3L188.5,139.3L191.6,147.8L187.4,153.2L187.4,153.2Z M203.7,133.4L203.9,133.5L203.8,133.5L203.7,133.4Z "/><path d="M331.8,67.4L331.8,67.4L332.1,68.0L334.8,69.6L334.8,69.7L334.8,69.7L352.3,68.3L360.4,68.8L369.6,70.6L369.6,70.6L369.9,61.8L367.4,52.0L353.6,53.0L348.1,42.2L338.0,40.3L337.0,31.5L329.8,26.9L325.1,31.3L313.6,23.4L311.5,9.9L295.5,14.4L295.1,14.6L305.2,27.5L309.6,35.3L319.1,36.4L323.0,34.9L320.9,41.1L331.0,45.6L328.0,48.2L330.1,54.7L333.5,55.7L331.8,67.4L331.8,67.4Z M328.2,62.8L330.9,63.2L329.4,62.0L328.2,62.8Z "/><path d="M332.2,119.7L332.2,119.7L336.3,122.7L336.0,125.5L347.1,134.2L347.7,134.2L347.7,134.1L352.5,127.5L352.2,117.4L354.7,117.1L367.3,102.8L367.3,102.7L367.3,102.6L366.5,90.6L369.5,89.4L372.9,71.7L372.9,71.7L370.5,70.7L370.1,70.8L369.6,70.6L369.6,70.6L360.4,68.8L352.3,68.3L334.8,69.7L334.8,69.7L334.8,69.7L331.9,77.8L331.4,83.4L333.3,86.8L333.2,86.8L333.3,87.0L332.0,106.4L330.7,110.2L333.6,115.4L332.2,119.7L332.2,119.7Z M329.3,115.6L329.5,115.7L329.4,115.6L329.3,115.6Z "/><path d="M285.0,84.4L285.0,84.4L301.7,87.5L315.7,93.2L333.1,86.8L333.2,86.8L333.3,86.8L331.4,83.4L331.9,77.8L334.8,69.7L334.8,69.7L334.8,69.6L332.1,68.0L331.8,67.4L331.8,67.4L331.7,67.6L323.7,69.4L318.1,63.5L315.3,64.9L307.7,61.0L308.8,58.0L295.8,59.7L290.7,53.8L279.3,50.7L279.3,50.7L276.2,56.4L274.2,61.4L270.5,67.3L270.5,67.3L280.7,75.3L282.3,77.1L285.0,84.4L285.0,84.4Z M280.2,60.5L280.2,60.5L280.3,60.4L280.2,60.5Z M279.6,59.2L279.7,59.3L279.6,59.2L279.6,59.2Z M280.2,59.8L280.2,59.8L280.2,59.8L280.2,59.8Z "/><path d="M279.3,50.7L290.7,53.8L295.8,59.7L308.8,58.0L307.7,61.0L315.3,64.9L318.1,63.5L323.7,69.4L331.7,67.6L331.8,67.4L331.8,67.4L333.5,55.7L330.1,54.7L328.0,48.2L331.0,45.6L320.9,41.1L323.0,34.9L319.1,36.4L309.6,35.3L305.2,27.5L295.1,14.6L294.7,14.7L284.7,17.6L277.9,24.7L277.3,30.3L279.4,50.6L279.3,50.7Z M328.2,62.8L329.4,62.0L330.9,63.2L328.2,62.8Z "/><path d="M282.5,103.9L282.5,103.9L282.5,112.0L282.2,113.8L282.2,113.8L282.2,113.8L287.0,117.6L291.7,116.8L314.5,122.1L314.6,122.1L314.6,122.0L325.8,122.1L326.1,121.7L332.2,119.7L332.2,119.7L332.2,119.7L333.6,115.4L330.7,110.2L332.0,106.4L333.3,87.0L333.2,86.8L333.1,86.8L315.7,93.2L301.7,87.5L285.0,84.4L285.0,84.4L285.0,84.4L281.8,93.2L282.6,98.7L282.5,103.9L282.5,103.9Z M329.3,115.6L329.4,115.6L329.5,115.7L329.3,115.6Z "/><path d="M367.3,102.7L367.5,102.7L382.4,109.4L386.0,108.2L400.5,110.8L400.5,110.8L400.8,110.7L405.9,100.6L405.3,91.2L415.6,88.9L415.6,88.9L405.3,82.7L395.9,79.5L396.3,72.7L393.4,69.5L393.6,59.1L389.0,65.5L380.5,72.3L372.9,71.7L372.9,71.7L369.5,89.4L366.5,90.6L367.3,102.6L367.3,102.7Z "/><path d="M480.8,145.4L480.8,145.4L481.5,146.6L482.5,146.6L482.5,146.6L482.5,146.6L485.3,156.1L486.1,157.6L486.1,157.7L486.2,157.7L498.6,166.4L501.0,167.2L501.0,167.1L506.3,154.9L507.9,139.2L519.6,119.7L519.6,117.7L499.1,115.1L499.0,115.1L496.5,121.8L482.8,119.6L478.5,115.5L479.4,131.1L485.1,128.9L488.5,138.0L480.8,145.4L480.8,145.4Z "/><path d="M394.3,179.1L394.4,179.1L405.2,197.0L412.3,197.4L416.0,202.9L420.5,201.1L420.5,201.1L420.4,201.1L421.5,197.3L428.6,197.0L438.6,182.3L438.7,182.3L438.7,182.3L430.1,172.5L431.6,166.6L422.3,159.0L421.6,155.5L421.8,155.5L421.7,155.4L411.8,149.4L408.5,147.2L403.3,141.6L403.3,141.6L403.2,141.6L400.3,141.6L396.5,150.3L391.9,150.6L391.9,150.6L391.9,150.6L392.5,157.0L397.5,160.7L399.5,172.0L395.1,173.6L394.4,179.1L394.3,179.1Z "/><path d="M345.7,160.0L345.7,160.1L368.8,185.0L374.1,183.3L379.1,185.0L379.2,185.0L379.2,184.9L389.0,182.1L389.7,178.8L394.3,179.0L394.3,179.1L394.4,179.1L395.1,173.6L399.5,172.0L397.5,160.7L392.5,157.0L391.9,150.6L391.9,150.6L391.9,150.6L385.4,150.5L378.7,146.5L377.9,140.9L373.4,141.4L360.8,152.5L350.6,147.0L350.6,147.0L350.6,147.0L344.9,156.0L345.3,156.5L345.7,159.9L345.7,160.0Z "/><path d="M486.9,202.9L501.1,202.2L502.2,177.4L501.0,167.3L501.0,167.2L498.6,166.4L486.2,157.7L486.1,157.7L486.1,157.7L477.5,179.7L477.6,184.1L474.9,185.8L474.9,185.8L474.9,185.8L482.4,198.4L484.2,197.6L486.8,202.9L486.9,202.9Z "/><path d="M432.4,150.7L432.4,150.7L437.0,150.6L437.9,155.8L444.6,156.4L464.6,150.1L475.3,151.3L482.5,146.6L482.5,146.6L482.5,146.6L481.5,146.6L480.8,145.4L480.8,145.4L480.8,145.4L460.9,134.5L452.3,131.7L445.1,125.6L438.3,114.1L434.0,94.6L434.0,94.6L430.2,91.8L428.7,92.5L418.7,95.4L418.7,95.4L427.0,99.5L429.9,107.1L430.0,116.0L434.0,120.0L430.0,137.6L432.4,150.5L432.4,150.7Z M418.3,100.5L418.9,99.7L418.7,100.1L418.3,100.5Z "/><path d="M480.8,145.4L480.8,145.4L488.5,138.0L485.1,128.9L479.4,131.1L478.5,115.5L482.8,119.6L496.5,121.8L499.0,115.1L498.9,115.0L491.4,109.5L486.0,112.6L469.9,107.9L466.6,111.2L457.4,96.7L443.4,93.9L440.6,96.0L434.0,94.7L434.0,94.6L438.3,114.1L445.1,125.6L452.3,131.7L460.9,134.5L480.8,145.4L480.8,145.4Z "/><path d="M403.3,141.6L403.3,141.6L408.5,147.2L411.8,149.4L421.7,155.4L421.8,155.5L421.8,155.5L424.7,154.3L425.7,154.6L432.4,150.7L432.4,150.7L432.4,150.5L430.0,137.6L434.0,120.0L430.0,116.0L429.9,107.1L427.0,99.5L418.7,95.4L418.7,95.4L417.8,92.1L418.0,91.6L415.6,88.9L415.6,88.9L405.3,91.2L405.9,100.6L400.8,110.7L400.5,110.8L400.5,110.9L400.2,129.9L403.3,141.5L403.3,141.6Z M418.3,100.5L418.7,100.1L418.9,99.7L418.3,100.5Z "/><path d="M350.6,147.0L350.6,147.0L360.8,152.5L373.4,141.4L377.9,140.9L378.7,146.5L385.4,150.5L391.9,150.6L391.9,150.6L391.9,150.6L396.5,150.3L400.3,141.6L403.2,141.6L403.3,141.6L403.3,141.5L400.2,129.9L400.5,110.9L400.5,110.8L400.5,110.8L386.0,108.2L382.4,109.4L367.5,102.7L367.3,102.7L367.3,102.8L354.7,117.1L352.2,117.4L352.5,127.5L347.7,134.1L347.7,134.2L347.7,134.3L346.2,138.1L344.5,139.4L350.6,147.0L350.6,147.0Z "/><path d="M404.8,407.6L405.0,407.6L423.6,417.3L435.6,420.6L445.9,417.1L446.1,416.9L446.3,416.5L446.1,416.3L437.6,410.2L435.7,404.7L434.9,395.7L434.8,395.5L434.8,395.5L421.3,385.5L408.1,390.0L400.6,385.2L400.4,385.2L400.4,385.2L400.4,386.1L400.5,388.4L400.5,388.4L400.5,388.5L404.1,399.0L406.4,399.7L404.9,407.5L404.8,407.6Z M409.1,383.9L415.4,381.1L412.9,378.9L409.1,383.9Z "/><path d="M402.1,322.1L402.2,322.1L403.1,321.2L404.0,315.6L403.9,315.5L403.5,315.8L399.8,314.8L403.5,312.8L401.2,295.4L401.2,295.4L401.2,295.4L400.6,286.4L401.2,285.6L401.4,281.9L401.4,281.9L401.3,281.9L388.7,275.7L386.2,280.0L386.2,280.0L386.3,280.0L384.4,298.1L386.8,311.0L397.5,317.5L402.1,322.1L402.1,322.1Z M402.6,314.7L412.9,312.3L415.1,308.0L414.7,301.7L414.7,301.6L414.5,301.7L414.2,301.7L413.3,301.9L413.1,301.9L413.1,301.8L413.1,301.9L410.2,306.2L410.8,308.5L402.6,314.7L402.6,314.7L402.6,314.7Z "/><path d="M401.2,295.4L401.3,295.3L405.6,297.0L408.4,302.2L413.0,301.8L413.1,301.8L413.1,301.9L413.3,301.9L414.2,301.7L414.5,301.7L414.7,301.6L414.8,301.6L427.3,301.4L431.3,305.8L435.5,311.7L435.6,311.8L435.6,311.9L441.4,304.2L442.5,293.4L442.6,293.2L442.6,293.1L441.7,290.4L441.9,284.2L446.9,282.1L447.0,282.1L454.0,269.5L450.3,266.1L450.2,266.1L439.6,275.0L433.2,271.9L428.0,275.8L421.2,265.9L421.2,265.9L421.2,265.9L408.0,263.2L403.8,271.5L401.4,281.8L401.4,281.9L401.4,281.9L401.2,285.6L400.6,286.4L401.2,295.4L401.2,295.4Z "/><path d="M304.7,270.7L304.7,270.7L310.4,278.2L313.3,280.3L315.9,286.0L315.9,286.0L315.9,286.0L328.3,279.7L331.2,286.5L339.3,290.0L349.0,289.3L350.9,292.9L359.7,296.8L359.8,297.0L359.8,297.0L364.7,293.5L364.4,288.2L367.2,277.5L367.2,277.5L367.2,277.5L369.1,265.6L360.7,261.7L356.1,251.4L356.1,251.4L356.1,251.4L346.6,254.1L345.4,255.3L333.3,249.6L333.2,249.4L333.2,249.4L315.7,260.1L317.2,262.1L306.3,266.8L304.7,270.7L304.7,270.7Z "/><path d="M296.8,351.4L301.0,361.3L302.6,371.4L302.7,371.5L302.7,371.4L313.6,369.4L322.9,354.0L326.5,357.0L333.5,369.4L333.5,369.4L333.5,369.4L338.0,355.8L342.9,355.9L348.1,351.0L348.1,350.9L347.8,350.8L345.6,347.6L347.6,343.5L337.6,329.7L337.5,329.7L337.5,329.7L328.7,328.3L318.5,323.7L314.1,323.1L314.1,323.2L314.1,323.5L303.6,335.5L301.1,345.2L296.9,351.4L296.8,351.4L296.8,351.4Z "/><path d="M374.1,378.8L374.2,378.8L376.1,386.2L392.5,387.3L393.1,384.8L400.4,388.4L400.5,388.4L400.5,388.4L400.4,386.1L400.4,385.2L400.4,385.2L400.4,385.1L404.5,364.5L407.2,354.9L404.2,330.9L404.2,330.9L404.2,330.9L402.6,329.2L402.6,328.3L402.3,327.2L402.3,327.1L402.2,327.1L396.9,330.4L396.7,333.2L392.0,335.0L391.9,334.8L391.9,335.0L388.3,345.6L385.5,346.6L379.9,355.3L368.3,363.1L368.3,363.1L368.3,363.1L372.0,372.5L374.1,378.8L374.1,378.8Z "/><path d="M290.2,311.1L290.2,311.1L296.2,307.5L304.7,312.6L313.1,308.7L313.3,308.7L313.3,308.7L310.3,303.4L317.7,295.6L315.9,286.0L315.9,286.0L315.9,286.0L313.3,280.3L310.4,278.2L304.7,270.7L304.7,270.7L304.7,270.7L303.4,270.4L302.6,270.5L300.4,270.5L300.4,270.5L300.4,270.5L281.7,271.0L280.1,272.8L271.4,274.9L271.4,274.9L271.4,274.9L275.2,297.3L289.6,306.0L290.2,311.1L290.2,311.1Z "/><path d="M426.7,217.7L426.8,217.7L428.3,219.6L428.9,220.1L433.7,219.5L433.7,219.5L433.7,219.5L453.3,210.0L458.8,204.5L465.3,205.0L474.5,200.4L474.5,200.4L474.5,200.3L472.6,188.7L474.1,186.4L474.1,186.4L474.1,186.4L465.7,179.9L442.9,180.3L438.7,182.3L438.7,182.3L438.6,182.3L428.6,197.0L421.5,197.3L420.4,201.1L420.5,201.1L420.5,201.1L424.9,205.3L421.4,208.1L426.7,217.7L426.7,217.7Z "/><path d="M451.9,257.4L461.6,247.5L464.1,234.8L472.0,228.3L480.0,207.3L480.0,207.3L478.6,205.1L474.5,200.5L474.5,200.4L474.5,200.4L465.3,205.0L458.8,204.5L453.3,210.0L433.7,219.5L433.7,219.5L433.7,219.5L438.2,224.6L438.8,231.5L454.4,246.5L449.7,251.1L452.6,258.0L451.9,257.4Z "/><path d="M373.3,217.9L373.2,218.0L374.7,223.4L376.5,223.1L377.5,228.0L377.5,228.1L377.6,228.1L391.4,236.7L396.1,241.5L404.8,237.5L417.6,236.2L417.6,236.3L417.6,236.2L422.5,229.9L424.8,224.3L426.8,217.7L426.7,217.7L426.7,217.7L421.4,208.1L424.9,205.3L420.5,201.1L420.5,201.1L420.5,201.1L416.0,202.9L412.3,197.4L405.2,197.0L394.4,179.1L394.3,179.1L394.3,179.0L389.7,178.8L389.0,182.1L379.2,184.9L379.2,185.0L379.2,185.0L381.0,194.3L377.5,196.5L373.3,208.9L373.3,217.9L373.3,217.9Z M374.0,230.0L374.1,230.0L375.5,230.4L376.7,229.2L376.6,228.5L376.5,228.4L376.4,228.3L375.2,228.8L373.7,229.6L374.0,229.9L374.0,230.0Z "/><path d="M438.7,182.3L438.7,182.3L442.9,180.3L465.7,179.9L474.1,186.4L474.1,186.4L474.1,186.3L474.3,186.2L474.7,185.7L474.9,185.7L474.9,185.8L474.9,185.8L477.6,184.1L477.5,179.7L486.1,157.7L486.1,157.7L486.1,157.6L485.3,156.1L482.5,146.6L482.5,146.6L482.5,146.6L475.3,151.3L464.6,150.1L444.6,156.4L437.9,155.8L437.0,150.6L432.4,150.7L432.4,150.7L432.4,150.7L425.7,154.6L424.7,154.3L421.8,155.5L421.8,155.5L421.6,155.5L422.3,159.0L431.6,166.6L430.1,172.5L438.7,182.3L438.7,182.3Z "/><path d="M474.5,200.4L474.5,200.5L478.6,205.1L480.0,207.3L480.0,207.2L482.1,206.0L483.0,203.2L486.8,202.9L486.8,202.9L484.2,197.6L482.4,198.4L474.9,185.8L474.9,185.8L474.9,185.7L474.7,185.7L474.3,186.2L474.1,186.3L474.1,186.4L474.1,186.4L472.6,188.7L474.5,200.3L474.5,200.4Z "/><path d="M330.3,206.2L330.3,206.2L336.9,208.3L350.9,208.4L361.0,214.7L364.7,213.5L370.4,219.4L373.3,217.9L373.3,217.9L373.3,217.9L373.3,208.9L377.5,196.5L381.0,194.3L379.2,185.0L379.2,185.0L379.1,185.0L374.1,183.3L368.8,185.0L345.7,160.1L345.7,160.0L345.5,160.0L332.3,162.0L328.2,172.9L328.2,173.0L328.3,173.0L331.1,174.1L335.6,183.6L331.5,192.5L325.4,195.7L330.3,206.2L330.3,206.2Z "/><path d="M326.5,209.0L326.5,209.1L333.8,235.2L334.2,239.1L333.3,248.9L333.2,249.4L333.3,249.6L345.4,255.3L346.6,254.1L356.1,251.4L356.1,251.4L356.2,251.4L362.5,253.9L373.9,244.7L374.0,230.0L374.0,230.0L374.0,229.9L373.7,229.6L375.2,228.8L376.4,228.3L376.5,228.4L376.5,228.4L377.1,228.3L377.2,228.2L377.5,228.1L377.5,228.1L377.5,228.0L376.5,223.1L374.7,223.4L373.2,218.0L373.3,217.9L373.3,217.9L370.4,219.4L364.7,213.5L361.0,214.7L350.9,208.4L336.9,208.3L330.3,206.2L330.3,206.2L330.2,206.2L327.8,206.7L327.6,206.9L326.4,208.9L326.5,209.0Z "/><path d="M241.4,199.5L241.4,199.5L258.2,207.6L260.4,218.6L268.1,228.0L268.1,228.0L268.1,228.0L272.8,225.1L282.8,223.0L287.1,226.0L287.5,226.2L287.9,226.2L297.9,215.1L302.2,215.6L298.6,205.5L302.5,203.7L302.5,203.7L302.5,203.7L287.6,201.1L285.6,202.9L276.6,193.1L275.4,183.6L275.4,183.6L275.4,183.5L265.9,184.7L260.2,178.4L250.2,176.7L250.1,176.7L250.1,176.8L250.1,180.8L249.1,188.5L241.4,199.5L241.4,199.5Z "/><path d="M303.7,129.4L303.8,129.4L305.2,130.8L304.8,131.8L304.8,132.2L304.8,132.2L304.8,132.2L307.4,132.1L307.6,132.4L308.4,135.0L308.4,135.0L308.4,135.0L313.3,135.8L314.8,137.2L314.9,137.3L314.9,137.2L313.6,132.9L314.8,131.7L313.4,125.9L313.3,126.0L313.3,126.1L310.3,128.6L303.8,129.4L303.7,129.4Z "/><path d="M219.8,228.8L219.8,228.8L224.6,231.6L229.9,242.0L234.1,242.1L240.6,237.9L250.4,252.4L250.4,252.4L250.8,252.2L255.8,248.4L258.6,237.5L264.1,237.1L268.7,232.8L268.1,228.1L268.1,228.0L268.1,228.0L260.4,218.6L258.2,207.6L241.4,199.5L241.4,199.5L241.5,199.5L231.0,205.5L226.9,204.0L226.9,204.1L226.9,204.1L226.6,208.7L223.7,217.7L219.8,228.8L219.8,228.8Z "/><path d="M290.3,157.0L290.6,157.1L290.7,160.0L293.0,166.5L293.0,166.6L293.0,166.6L295.2,166.3L308.1,164.6L308.2,164.5L308.2,164.5L313.5,159.9L311.9,158.4L314.4,143.7L314.2,143.7L314.1,143.8L312.2,142.3L306.9,142.3L305.0,140.7L304.9,140.7L304.9,140.8L303.5,141.0L303.6,140.8L301.5,139.2L301.5,139.2L301.4,139.2L296.9,143.3L290.3,157.0L290.3,157.0Z "/><path d="M248.6,171.6L248.5,171.7L250.2,173.3L251.7,175.0L250.1,176.7L250.1,176.7L250.2,176.7L260.2,178.4L265.9,184.7L275.4,183.5L275.4,183.6L275.5,183.6L292.2,173.0L293.1,166.7L293.0,166.6L293.0,166.5L290.7,160.0L290.6,157.1L290.3,157.0L290.3,157.1L277.5,143.4L279.1,141.5L275.2,130.4L274.8,130.1L274.8,130.1L264.5,139.9L260.6,138.8L249.5,145.0L249.5,145.0L249.4,145.1L254.3,160.2L248.6,171.6L248.6,171.6Z "/><path d="M300.4,270.5L300.4,270.5L302.6,270.5L303.4,270.4L304.7,270.7L304.7,270.7L304.7,270.7L306.3,266.8L317.2,262.1L315.7,260.1L333.2,249.4L333.2,249.4L333.3,248.9L334.2,239.1L333.8,235.2L326.5,209.1L326.5,209.0L326.3,209.1L310.6,205.0L302.5,203.7L302.5,203.7L302.5,203.7L298.6,205.5L302.2,215.6L297.9,215.1L287.9,226.2L287.5,226.2L287.5,226.3L295.6,232.6L298.3,254.5L300.0,258.1L300.4,270.5L300.4,270.5Z "/><path d="M173.9,235.0L173.9,235.1L177.8,236.6L182.5,236.8L183.5,238.3L183.5,238.3L183.5,238.3L199.3,234.5L212.1,232.0L213.7,234.2L213.7,234.2L213.7,234.2L216.4,231.9L217.2,229.2L219.8,228.8L219.8,228.8L219.8,228.8L223.7,217.7L226.6,208.7L226.9,204.1L226.9,204.1L226.8,204.0L214.0,202.3L205.4,197.5L204.0,195.1L204.0,195.1L204.0,195.1L194.9,196.1L172.0,191.4L172.0,191.4L172.0,191.4L171.8,192.5L171.7,193.2L171.7,193.2L171.7,193.2L179.4,204.9L174.1,207.4L180.3,209.6L174.3,216.3L166.8,219.5L173.9,235.0L173.9,235.0Z "/><path d="M142.1,233.8L151.7,242.4L158.1,243.8L160.3,234.1L161.7,240.4L173.9,235.0L173.9,235.0L173.9,235.0L166.8,219.5L174.3,216.3L180.3,209.6L174.1,207.4L179.4,204.9L171.7,193.2L171.7,193.2L171.7,193.2L161.2,192.2L156.9,194.7L139.4,200.0L139.4,200.0L139.4,200.0L139.1,205.2L136.7,207.5L125.3,209.6L125.3,209.6L121.5,213.8L123.8,219.2L130.1,221.3L142.1,233.8L142.1,233.8Z M118.9,211.4L119.0,211.4L119.1,211.2L118.9,211.4Z M124.0,217.1L124.1,217.1L124.1,217.0L124.0,217.1Z M127.4,221.0L127.5,221.0L127.5,221.0L127.4,221.0Z M128.8,221.8L128.8,221.8L128.8,221.8L128.8,221.8Z M129.0,222.3L129.0,222.3L129.0,222.3L129.0,222.3Z "/><path d="M345.4,449.1L351.2,445.1L356.1,445.8L360.5,440.2L371.7,431.8L379.8,429.2L379.8,429.2L383.4,423.5L376.6,415.6L373.8,415.4L366.6,407.5L363.1,406.9L356.3,413.1L349.3,410.0L349.3,409.9L349.3,409.9L337.0,416.3L337.6,422.5L332.5,422.5L332.5,422.5L332.5,422.5L330.1,425.3L320.9,424.6L321.6,432.1L317.8,437.9L317.8,437.9L317.9,438.0L317.3,440.7L323.4,444.7L345.4,449.2L345.4,449.1Z M355.9,446.1L356.0,446.1L356.0,446.1L355.9,446.1Z "/><path d="M232.4,478.2L239.9,478.8L240.1,470.7L248.1,471.3L248.2,471.4L256.6,453.8L263.3,456.9L263.6,451.3L282.2,446.5L282.2,446.5L282.3,446.5L284.1,442.9L296.0,437.4L296.0,437.3L295.9,437.2L283.4,427.2L283.8,424.5L276.8,410.5L276.8,410.5L276.8,410.5L268.9,416.1L264.3,418.3L252.5,417.7L252.5,417.7L252.5,417.9L258.8,430.6L252.8,440.1L245.3,438.6L238.2,444.2L238.2,444.2L238.3,444.2L233.3,452.3L239.3,464.2L232.4,478.2L232.4,478.2Z "/><path d="M139.4,200.0L139.4,200.0L156.9,194.7L161.2,192.2L171.7,193.2L171.7,193.2L171.7,193.2L171.8,192.5L172.0,191.4L172.0,191.4L172.0,191.4L180.5,180.0L178.1,167.1L179.6,152.6L179.6,152.6L179.6,152.6L173.3,150.6L161.4,145.4L158.9,145.9L146.3,141.6L147.3,149.6L147.3,149.6L147.5,160.4L141.9,163.1L133.6,171.6L133.6,171.7L133.6,171.7L134.7,179.4L141.1,194.1L139.4,200.0L139.4,200.0Z M141.0,145.8L141.0,146.6L141.8,147.3L145.2,147.9L145.2,147.9L143.5,143.9L141.4,143.5L141.0,145.7L141.0,145.8Z M152.1,141.9L152.1,141.8L152.1,141.8L152.1,141.9Z M151.7,140.4L151.9,140.1L151.8,140.2L151.7,140.4Z M152.1,141.8L152.1,141.8L152.1,141.8L152.1,141.8Z M147.4,140.9L147.4,141.0L147.5,141.0L147.4,140.9Z M146.7,141.0L146.8,141.2L146.8,141.1L146.7,141.0Z M145.2,146.4L145.2,146.4L145.2,146.4L145.2,146.4Z M151.9,142.0L152.0,141.9L151.9,142.0L151.9,142.0Z M147.4,140.7L147.5,140.8L147.5,140.7L147.4,140.7Z M142.9,141.8L142.9,141.8L143.2,141.7L142.9,141.8Z M145.7,146.9L145.7,146.9L145.7,146.9L145.7,146.9Z M144.1,143.2L144.3,143.2L144.3,143.1L144.1,143.2Z M139.9,144.3L139.9,144.2L139.9,144.2L139.9,144.3Z M140.4,144.0L140.4,144.0L140.4,143.9L140.4,144.0Z M142.9,141.8L142.9,141.8L142.9,141.8L142.9,141.8Z M144.0,141.2L144.0,141.2L144.0,141.2L144.0,141.2Z M147.7,141.4L147.7,141.4L147.7,141.4L147.7,141.4Z M143.9,141.2L143.9,141.2L143.9,141.1L143.9,141.2Z M144.0,141.2L144.0,141.2L144.0,141.2L144.0,141.2Z M143.9,141.2L143.9,141.2L143.9,141.2L143.9,141.2Z M143.1,141.8L143.1,141.8L143.1,141.8L143.1,141.8Z M143.6,141.6L143.6,141.6L143.6,141.6L143.6,141.6Z M145.4,146.3L145.4,146.4L145.4,146.3L145.4,146.3Z M144.0,141.2L144.0,141.2L144.0,141.2L144.0,141.2Z M145.8,141.9L145.8,142.0L145.8,142.0L145.8,141.9Z M145.9,142.0L145.9,142.0L145.9,142.0L145.9,142.0Z M145.9,141.8L145.9,141.8L145.9,141.8L145.9,141.8Z M143.0,143.0L143.0,143.0L143.1,143.0L143.0,143.0Z M141.5,143.3L141.5,143.3L141.5,143.3L141.5,143.3Z "/><path d="M368.7,328.8L368.7,328.8L375.2,329.6L378.3,327.0L391.7,334.7L391.9,334.8L392.0,335.0L396.7,333.2L396.9,330.4L402.2,327.1L402.3,327.1L402.3,327.1L402.3,323.3L402.1,322.1L402.1,322.1L402.1,322.1L397.5,317.5L386.8,311.0L384.4,298.1L386.3,280.0L386.2,280.0L386.2,280.0L381.0,283.6L367.0,281.0L367.2,277.5L367.2,277.5L367.2,277.5L364.4,288.2L364.7,293.5L359.8,297.0L359.8,297.0L359.9,297.0L370.2,318.3L371.5,323.6L368.7,328.8L368.7,328.8Z "/><path d="M349.3,409.9L349.3,410.0L356.3,413.1L363.1,406.9L366.6,407.5L373.8,415.4L376.6,415.6L383.4,423.5L379.8,429.2L379.8,429.2L380.6,432.5L380.9,432.8L385.2,434.2L385.2,434.2L392.4,427.7L397.7,420.3L404.9,407.8L404.8,407.6L404.9,407.5L406.4,399.7L404.1,399.0L400.5,388.5L400.5,388.4L400.4,388.4L393.1,384.8L392.5,387.3L376.1,386.2L374.2,378.8L374.1,378.8L374.1,378.8L369.8,397.5L360.2,395.0L360.0,398.1L349.7,395.6L349.6,395.6L349.6,395.7L345.3,400.1L352.7,404.8L349.3,409.9L349.3,409.9Z "/><path d="M213.7,234.2L213.7,234.2L218.4,246.1L218.3,261.1L215.3,267.3L224.2,288.5L224.2,288.5L224.2,288.5L241.4,289.0L244.2,286.4L248.4,286.9L248.4,287.0L248.5,287.0L249.4,280.4L258.5,274.2L262.2,272.8L262.2,272.8L262.2,272.8L252.0,260.6L252.3,255.7L250.5,252.5L250.4,252.4L250.4,252.4L240.6,237.9L234.1,242.1L229.9,242.0L224.6,231.6L219.8,228.8L219.8,228.8L219.8,228.8L217.2,229.2L216.4,231.9L213.7,234.2L213.7,234.2Z "/><path d="M278.7,122.5L293.9,126.8L298.9,127.6L300.4,131.8L300.4,131.8L300.5,131.8L300.7,131.6L303.0,129.6L303.6,129.4L303.7,129.4L303.8,129.4L310.3,128.6L313.3,126.1L313.3,126.0L313.3,125.9L312.6,125.5L314.6,122.1L314.6,122.1L314.5,122.1L291.7,116.8L287.0,117.6L282.2,113.8L282.2,113.8L282.2,113.8L281.2,115.0L278.7,122.4L278.7,122.4L278.7,122.5Z "/><path d="M308.2,164.5L308.2,164.5L319.5,175.4L328.0,173.1L328.2,173.0L328.2,172.9L332.3,162.0L345.5,160.0L345.7,160.0L345.7,159.9L345.3,156.5L344.9,156.0L350.6,147.0L350.6,147.0L350.6,147.0L344.5,139.4L346.2,138.1L347.7,134.3L347.7,134.2L347.1,134.2L336.0,125.5L336.3,122.7L332.2,119.7L332.2,119.7L332.2,119.7L326.1,121.7L325.8,122.1L314.6,122.0L314.6,122.1L314.6,122.1L312.6,125.5L313.3,125.9L313.3,126.0L313.4,125.9L314.8,131.7L313.6,132.9L314.9,137.2L314.9,137.3L314.9,137.3L315.7,139.8L315.4,140.0L314.2,143.7L314.2,143.7L314.4,143.7L311.9,158.4L313.5,159.9L308.2,164.5L308.2,164.5Z "/><path d="M275.4,183.6L275.4,183.6L276.6,193.1L285.6,202.9L287.6,201.1L302.5,203.7L302.5,203.7L302.5,203.7L310.6,205.0L326.3,209.1L326.5,209.0L326.4,208.9L327.6,206.9L327.8,206.7L330.2,206.2L330.3,206.2L330.3,206.2L325.4,195.7L331.5,192.5L335.6,183.6L331.1,174.1L328.3,173.0L328.2,173.0L328.0,173.1L319.5,175.4L308.2,164.5L308.2,164.5L308.1,164.6L295.2,166.3L293.0,166.6L293.0,166.6L293.1,166.7L292.2,173.0L275.5,183.6L275.4,183.6Z "/><path d="M274.8,130.1L275.2,130.4L279.1,141.5L277.5,143.4L290.3,157.1L290.3,157.0L290.3,157.0L296.9,143.3L301.4,139.2L301.5,139.2L301.4,139.2L299.7,137.6L300.4,131.8L300.4,131.8L300.4,131.8L298.9,127.6L293.9,126.8L278.7,122.5L278.7,122.4L278.7,122.4L273.2,124.9L274.9,129.8L274.8,130.1Z "/><path d="M304.9,140.7L305.0,140.7L306.9,142.3L312.2,142.3L314.1,143.8L314.2,143.7L314.2,143.7L315.4,140.0L315.7,139.8L314.9,137.3L314.9,137.3L314.8,137.2L313.3,135.8L308.4,135.0L308.4,135.0L308.4,135.0L310.1,136.6L305.3,136.9L305.3,136.9L305.3,136.9L304.8,138.5L305.0,138.6L304.9,140.7L304.9,140.7Z "/><path d="M164.8,377.9L175.5,376.0L175.1,380.5L187.8,379.2L203.6,394.3L208.6,392.3L208.9,392.6L209.4,392.3L211.9,391.5L214.2,378.0L226.9,363.0L226.9,363.0L226.9,363.0L226.4,359.6L213.9,357.8L216.1,350.6L213.9,343.8L213.9,343.8L213.9,343.8L208.0,344.1L201.6,339.7L199.3,334.1L192.7,329.8L187.6,330.6L187.6,330.6L186.3,336.2L184.3,329.7L173.6,316.7L170.8,321.3L165.0,369.0L164.9,377.8L164.8,377.9Z M165.0,372.0L166.0,370.9L165.4,371.3L165.0,372.0Z M167.8,365.0L168.5,365.4L168.7,365.3L167.8,365.0Z M164.9,370.8L165.0,370.9L165.3,370.6L164.9,370.8Z M165.1,372.2L165.2,372.2L165.2,372.1L165.1,372.2Z M172.3,367.9L172.3,367.9L172.3,367.9L172.3,367.9Z "/><path d="M152.1,429.8L165.5,429.4L173.6,431.9L182.6,428.1L204.0,428.3L204.0,428.3L204.1,428.2L207.0,408.6L213.4,409.2L217.3,406.4L217.3,406.4L217.3,406.3L216.8,404.0L209.3,393.9L208.9,392.6L208.6,392.3L203.6,394.3L187.8,379.2L175.1,380.5L175.5,376.0L164.8,377.9L164.8,377.9L159.1,407.5L156.9,416.3L152.1,429.8L152.1,429.8Z "/><path d="M403.9,315.5L403.9,315.5L402.9,315.1L402.6,314.8L402.6,314.7L402.6,314.7L410.8,308.5L410.2,306.2L413.1,301.9L413.1,301.8L413.0,301.8L408.4,302.2L405.6,297.0L401.3,295.3L401.2,295.4L401.2,295.4L403.5,312.8L399.8,314.8L403.5,315.8L403.9,315.5Z "/><path d="M402.3,327.1L402.3,327.2L402.6,328.3L402.6,329.2L404.2,330.9L404.2,330.9L404.2,330.9L412.2,328.0L419.7,337.5L419.3,342.7L431.3,342.4L432.3,358.2L445.1,362.0L445.2,362.0L445.2,362.0L459.3,353.0L466.5,350.6L462.0,337.6L462.0,337.5L462.0,337.5L457.9,336.4L458.2,323.5L447.5,319.1L435.5,311.8L435.6,311.8L435.5,311.7L431.3,305.8L427.3,301.4L414.8,301.6L414.7,301.6L414.7,301.7L415.1,308.0L412.9,312.3L402.6,314.7L402.6,314.7L402.6,314.8L402.9,315.1L403.9,315.5L403.9,315.5L404.0,315.6L403.1,321.2L402.2,322.1L402.1,322.1L402.1,322.1L402.3,323.3L402.3,327.1L402.3,327.1Z "/><path d="M367.2,277.5L367.2,277.5L367.0,281.0L381.0,283.6L386.2,280.0L386.2,280.0L386.2,280.0L388.7,275.7L401.3,281.9L401.4,281.9L401.4,281.8L403.8,271.5L408.0,263.2L421.2,265.9L421.2,265.9L421.2,265.9L425.5,255.5L421.3,244.7L426.0,243.6L417.6,236.3L417.6,236.3L417.6,236.2L404.8,237.5L396.1,241.5L391.4,236.7L377.6,228.1L377.5,228.1L377.5,228.1L377.2,228.2L377.1,228.3L376.5,228.4L376.5,228.4L376.6,228.5L376.7,229.2L375.5,230.4L374.1,230.0L374.0,230.0L374.0,230.0L373.9,244.7L362.5,253.9L356.2,251.4L356.1,251.4L356.1,251.4L360.7,261.7L369.1,265.6L367.2,277.5L367.2,277.5Z M425.0,243.2L425.3,243.2L425.4,243.4L425.0,243.2Z M425.5,243.0L425.6,243.0L425.6,243.1L425.5,243.0Z "/><path d="M250.5,252.5L252.3,255.7L252.0,260.6L262.2,272.8L262.2,272.8L262.2,272.8L268.6,271.9L271.2,274.7L271.4,274.9L271.4,274.9L280.1,272.8L281.7,271.0L300.4,270.5L300.4,270.5L300.4,270.5L300.0,258.1L298.3,254.5L295.6,232.6L287.5,226.3L287.5,226.2L287.1,226.0L282.8,223.0L272.8,225.1L268.1,228.0L268.1,228.0L268.1,228.1L268.7,232.8L264.1,237.1L258.6,237.5L255.8,248.4L250.8,252.2L250.4,252.4L250.5,252.5Z "/><path d="M187.8,276.0L187.8,276.0L206.3,290.4L212.3,295.3L212.4,295.3L212.4,295.3L215.6,292.0L215.0,290.8L224.2,288.5L224.2,288.5L224.2,288.5L215.3,267.3L218.3,261.1L218.4,246.1L213.7,234.2L213.7,234.2L213.7,234.2L212.1,232.0L199.3,234.5L183.5,238.3L183.5,238.3L183.5,238.3L190.6,247.8L192.2,270.9L195.2,273.1L187.9,276.0L187.8,276.0Z "/><path d="M200.3,469.3L215.9,477.4L226.1,479.1L232.3,478.3L232.4,478.2L239.3,464.2L233.3,452.3L238.3,444.2L238.2,444.2L238.0,444.1L227.1,442.2L219.7,438.6L213.6,428.0L209.9,428.6L209.9,428.6L209.9,428.6L213.3,436.4L211.7,448.4L201.5,462.6L200.3,469.3L200.3,469.3Z M208.9,442.8L210.7,443.7L211.1,441.7L208.9,442.8Z M207.8,445.9L209.3,447.5L209.9,444.3L207.8,445.9Z "/><path d="M305.3,136.9L305.3,136.9L310.1,136.6L308.4,135.0L308.4,135.0L308.4,135.0L307.6,132.4L307.4,132.1L304.8,132.2L304.8,132.2L304.8,132.2L301.3,134.9L305.3,136.8L305.3,136.9Z "/><path d="M301.5,139.2L301.5,139.2L303.6,140.8L303.5,141.0L304.9,140.8L304.9,140.7L304.9,140.7L305.0,138.6L304.8,138.5L305.3,136.9L305.3,136.9L305.3,136.8L301.3,134.9L304.8,132.2L304.8,132.2L304.8,132.2L304.8,131.8L305.2,130.8L303.8,129.4L303.7,129.4L303.6,129.4L303.0,129.6L300.7,131.6L300.5,131.8L300.4,131.8L300.4,131.8L299.7,137.6L301.4,139.2L301.5,139.2Z "/><path d="M282.2,446.5L283.1,451.3L292.0,454.8L295.6,476.5L301.8,480.3L301.9,480.4L302.0,480.5L308.2,471.1L322.3,470.6L330.7,466.3L337.8,470.2L337.8,470.2L338.1,461.5L339.1,458.2L345.4,449.2L345.4,449.2L323.4,444.7L317.3,440.7L317.9,438.0L317.8,437.9L317.8,437.9L305.0,436.6L303.7,440.0L296.4,437.4L296.0,437.3L296.0,437.4L284.1,442.9L282.3,446.5L282.2,446.5L282.2,446.5Z "/><path d="M337.8,470.2L330.7,466.3L322.3,470.6L308.2,471.1L302.0,480.5L301.9,480.4L301.6,480.4L289.0,484.9L286.3,485.5L286.3,485.5L285.0,490.1L315.0,498.3L334.2,490.2L343.2,492.3L337.8,470.3L337.8,470.2Z M293.3,491.9L294.8,491.5L295.6,492.1L293.3,491.9Z "/><path d="M187.6,330.6L192.7,329.8L199.3,334.1L201.6,339.7L208.0,344.1L213.9,343.8L213.9,343.8L213.9,343.8L214.1,341.6L215.8,338.8L215.8,338.8L215.7,338.8L204.9,332.4L203.5,328.2L205.9,320.3L200.8,314.4L198.2,307.2L207.5,305.9L212.4,295.3L212.4,295.3L212.3,295.3L206.3,290.4L187.8,276.0L187.8,276.0L187.8,276.0L179.7,274.7L180.6,273.5L173.1,275.5L173.2,275.6L169.2,309.4L176.3,313.9L186.3,326.3L187.6,330.5L187.6,330.6Z M161.8,289.5L168.2,303.6L170.2,298.8L161.8,289.5Z M170.7,291.8L171.5,291.5L171.7,291.5L170.7,291.8Z M173.2,312.6L173.2,312.6L173.2,312.6L173.2,312.6Z M169.4,292.4L169.4,292.5L169.4,292.4L169.4,292.4Z M176.4,314.8L176.4,314.8L176.4,314.8L176.4,314.8Z M176.4,314.8L176.4,314.8L176.4,314.8L176.4,314.8Z M173.2,312.6L173.3,312.7L173.3,312.7L173.2,312.6Z M172.4,294.4L172.5,294.4L172.5,294.4L172.4,294.4Z M173.2,312.6L173.2,312.6L173.2,312.6L173.2,312.6Z M173.2,312.6L173.2,312.6L173.2,312.6L173.2,312.6Z M172.3,294.3L172.4,294.4L172.4,294.3L172.3,294.3Z M172.3,294.4L172.4,294.5L172.5,294.5L172.3,294.4Z M176.4,314.8L176.4,314.8L176.4,314.8L176.4,314.8Z "/><path d="M200.3,469.3L201.5,462.6L211.7,448.4L213.3,436.4L209.9,428.6L209.9,428.6L209.9,428.6L206.7,427.7L205.6,428.4L204.0,428.3L204.0,428.3L204.0,428.3L182.6,428.1L173.6,431.9L165.5,429.4L152.1,429.8L152.1,429.8L142.2,439.8L143.3,442.5L155.8,444.5L154.6,453.5L180.1,463.1L188.8,471.6L200.2,469.3L200.3,469.3Z M208.9,442.8L211.1,441.7L210.7,443.7L208.9,442.8Z M207.8,445.9L209.9,444.3L209.3,447.5L207.8,445.9Z M150.1,432.3L150.1,432.3L150.2,432.3L150.1,432.3Z M150.2,432.2L150.2,432.2L150.3,432.2L150.2,432.2Z M142.4,437.6L142.4,437.6L142.4,437.6L142.4,437.6Z M150.4,432.2L150.5,432.2L150.5,432.2L150.4,432.2Z M150.0,432.3L150.1,432.3L150.1,432.3L150.0,432.3Z M150.4,432.2L150.4,432.2L150.4,432.2L150.4,432.2Z M150.7,432.0L150.7,432.0L150.7,432.0L150.7,432.0Z M150.4,432.3L150.4,432.3L150.4,432.3L150.4,432.3Z M150.4,432.2L150.5,432.2L150.5,432.2L150.4,432.2Z M150.0,432.2L150.1,432.2L150.0,432.2L150.0,432.2Z M142.8,437.6L142.9,437.6L142.8,437.6L142.8,437.6Z M150.2,432.3L150.2,432.3L150.2,432.3L150.2,432.3Z M150.1,432.3L150.1,432.3L150.1,432.3L150.1,432.3Z M150.0,432.3L150.0,432.3L150.0,432.3L150.0,432.3Z M149.9,432.4L149.9,432.4L149.9,432.4L149.9,432.4Z "/><path d="M421.2,265.9L421.2,265.9L428.0,275.8L433.2,271.9L439.6,275.0L450.2,266.1L450.3,265.8L451.0,264.6L450.6,263.2L453.3,258.6L452.6,258.0L449.7,251.1L454.4,246.5L438.8,231.5L438.2,224.6L433.7,219.5L433.7,219.5L433.7,219.5L428.9,220.1L428.3,219.6L426.8,217.7L426.7,217.7L426.8,217.7L424.8,224.3L422.5,229.9L417.6,236.2L417.6,236.3L417.6,236.3L426.0,243.6L421.3,244.7L425.5,255.5L421.2,265.9L421.2,265.9Z M425.0,243.2L425.4,243.4L425.3,243.2L425.0,243.2Z M425.5,243.0L425.6,243.1L425.6,243.0L425.5,243.0Z "/><path d="M462.0,337.5L462.1,337.5L469.7,341.2L471.1,340.9L476.6,337.6L476.7,337.6L490.6,330.7L493.4,330.8L496.7,319.4L489.1,311.6L480.9,300.0L480.9,299.9L477.0,302.0L469.5,293.7L463.4,303.3L457.4,306.0L454.4,302.8L446.6,300.5L442.6,293.2L442.6,293.2L442.5,293.4L441.4,304.2L435.6,311.9L435.6,311.8L435.5,311.8L447.5,319.1L458.2,323.5L457.9,336.4L462.0,337.5L462.0,337.5Z "/><path d="M441.7,391.0L441.7,391.0L450.8,389.6L447.7,386.9L457.1,374.1L469.6,372.5L474.4,374.7L490.8,362.1L490.8,362.1L495.7,360.1L482.0,347.8L476.6,337.6L476.6,337.6L471.1,340.9L469.7,341.2L462.1,337.5L462.0,337.5L462.0,337.6L466.5,350.6L459.3,353.0L445.2,362.0L445.2,362.0L445.2,362.0L438.8,371.9L433.0,374.6L432.6,381.5L441.4,387.3L441.7,391.0L441.7,391.0Z "/><path d="M442.6,293.2L442.6,293.2L446.6,300.5L454.4,302.8L457.4,306.0L463.4,303.3L469.5,293.7L477.0,302.0L480.9,299.9L480.9,299.8L489.2,291.4L479.4,279.9L478.7,265.6L473.8,262.5L460.7,266.1L457.6,272.0L460.3,275.1L447.0,282.1L446.9,282.1L441.9,284.2L441.7,290.4L442.6,293.1L442.6,293.2Z "/><path d="M173.1,275.5L180.6,273.5L179.7,274.7L187.8,276.0L187.8,276.0L187.9,276.0L195.2,273.1L192.2,270.9L190.6,247.8L183.5,238.3L183.5,238.3L183.5,238.3L182.5,236.8L177.8,236.6L173.9,235.1L173.9,235.0L173.9,235.0L161.7,240.4L160.3,234.1L158.1,243.8L151.7,242.4L142.1,233.8L142.1,233.8L136.6,240.8L135.6,245.4L145.9,257.4L147.1,263.0L168.0,276.5L173.1,275.5L173.1,275.5Z M125.4,250.0L126.8,251.8L128.8,250.9L125.4,250.0Z M127.8,232.4L128.0,232.5L128.0,232.6L127.8,232.4Z M126.0,251.4L126.0,251.5L126.1,251.4L126.0,251.4Z "/><path d="M86.0,189.5L89.5,193.4L92.8,191.7L99.3,199.3L99.5,205.6L109.0,201.2L112.7,206.8L125.3,209.6L125.3,209.6L136.7,207.5L139.1,205.2L139.4,200.0L139.4,200.0L139.4,200.0L141.1,194.1L134.7,179.4L133.6,171.7L133.6,171.7L133.6,171.7L129.3,169.6L123.2,174.8L119.5,171.0L106.7,166.6L90.9,167.7L86.3,166.0L86.3,166.0L86.3,166.0L80.6,168.0L79.7,170.6L86.0,189.5L86.0,189.5Z M86.2,196.1L89.6,197.9L89.3,196.7L86.2,196.1Z M94.6,212.1L96.0,216.3L101.9,215.6L94.6,212.1Z M112.2,201.2L113.7,201.2L113.4,200.5L112.2,201.2Z M108.6,214.4L109.2,215.1L109.3,214.6L108.6,214.4Z M114.0,199.9L114.6,200.4L114.6,200.1L114.0,199.9Z M113.0,202.0L113.3,201.9L113.1,201.6L113.0,202.0Z M112.5,202.4L112.6,202.6L112.6,202.5L112.5,202.4Z M110.9,199.7L111.1,199.8L111.0,199.6L110.9,199.7Z M93.8,193.4L93.9,193.6L94.2,193.7L93.8,193.4Z M106.9,202.9L107.0,203.1L107.0,202.9L106.9,202.9Z M115.1,201.4L115.5,202.1L115.7,201.9L115.1,201.4Z M114.2,206.3L114.3,206.3L114.3,206.3L114.2,206.3Z M115.6,200.6L115.8,200.6L115.8,200.6L115.6,200.6Z M112.7,199.9L112.9,199.9L112.8,199.9L112.7,199.9Z M106.6,212.8L106.6,212.8L106.6,212.7L106.6,212.8Z M105.6,213.6L105.9,213.7L105.7,213.5L105.6,213.6Z M104.6,200.2L104.6,200.2L104.6,200.1L104.6,200.2Z M114.2,206.6L114.2,206.6L114.2,206.6L114.2,206.6Z M107.1,202.9L107.1,202.9L107.1,202.9L107.1,202.9Z M94.5,193.7L94.6,193.8L94.7,193.7L94.5,193.7Z M108.6,201.6L108.6,202.0L108.7,201.5L108.6,201.6Z M114.2,200.9L114.2,201.0L114.2,200.9L114.2,200.9Z M108.3,202.1L108.3,202.1L108.4,202.1L108.3,202.1Z M99.2,202.6L99.3,202.6L99.2,202.6L99.2,202.6Z M92.3,192.2L92.4,192.1L92.3,192.1L92.3,192.2Z M110.2,201.5L110.2,201.6L110.3,201.5L110.2,201.5Z M106.5,212.7L106.6,212.7L106.6,212.7L106.5,212.7Z M113.4,206.7L113.5,206.7L113.5,206.7L113.4,206.7Z M104.0,210.5L104.0,210.5L104.2,210.5L104.0,210.5Z M109.0,201.8L109.2,201.7L109.2,201.5L109.0,201.8Z M103.7,210.2L103.9,210.2L103.7,210.1L103.7,210.2Z M115.5,200.8L115.5,200.8L115.5,200.8L115.5,200.8Z M112.3,199.6L112.4,199.6L112.4,199.6L112.3,199.6Z M109.4,202.3L109.6,202.2L109.5,202.2L109.4,202.3Z M106.9,202.9L106.9,202.9L106.9,202.9L106.9,202.9Z M102.3,207.3L102.3,207.4L102.4,207.3L102.3,207.3Z M116.3,201.2L116.4,201.2L116.4,201.2L116.3,201.2Z M97.9,199.0L97.9,199.1L97.9,199.0L97.9,199.0Z M116.1,201.6L116.2,201.6L116.2,201.5L116.1,201.6Z M114.7,201.8L114.9,201.8L114.8,201.7L114.7,201.8Z M112.2,200.4L112.2,200.4L112.2,200.4L112.2,200.4Z M114.4,202.1L114.5,202.1L114.5,202.0L114.4,202.1Z M106.3,212.6L106.3,212.6L106.3,212.5L106.3,212.6Z M102.0,207.2L102.1,207.2L102.0,207.1L102.0,207.2Z M114.2,202.2L114.2,202.3L114.2,202.2L114.2,202.2Z M108.1,201.6L108.2,201.7L108.2,201.5L108.1,201.6Z M107.0,204.2L107.2,204.1L107.0,204.1L107.0,204.2Z M106.2,202.8L106.3,202.8L106.3,202.7L106.2,202.8Z M107.6,203.6L107.7,203.7L107.7,203.6L107.6,203.6Z M112.6,199.9L112.6,199.9L112.6,199.9L112.6,199.9Z M107.0,211.9L107.0,211.9L107.1,211.9L107.0,211.9Z M107.0,202.8L107.1,202.8L107.0,202.8L107.0,202.8Z M99.2,203.4L99.2,203.4L99.2,203.4L99.2,203.4Z M113.6,202.9L113.6,202.9L113.6,202.9L113.6,202.9Z M105.6,202.3L105.6,202.3L105.6,202.3L105.6,202.3Z M99.1,202.6L99.1,202.6L99.1,202.6L99.1,202.6Z M115.3,202.1L115.3,202.2L115.4,202.2L115.3,202.1Z M99.0,202.3L99.1,202.3L99.1,202.2L99.0,202.3Z M124.0,210.0L124.1,210.0L124.1,209.9L124.0,210.0Z M123.7,205.5L123.7,205.5L123.7,205.5L123.7,205.5Z M109.1,202.0L109.1,202.0L109.1,202.0L109.1,202.0Z M99.4,203.2L99.4,203.3L99.4,203.2L99.4,203.2Z M107.6,201.1L107.6,201.1L107.7,201.1L107.6,201.1Z M115.8,201.5L115.8,201.5L115.8,201.5L115.8,201.5Z M115.7,201.3L115.8,201.3L115.8,201.3L115.7,201.3Z M124.3,210.1L124.4,210.1L124.3,210.1L124.3,210.1Z M123.9,209.8L123.9,209.9L123.9,209.8L123.9,209.8Z M113.3,201.7L113.4,201.7L113.4,201.7L113.3,201.7Z M109.7,215.0L109.7,215.0L109.7,215.0L109.7,215.0Z M107.6,201.2L107.7,201.2L107.7,201.2L107.6,201.2Z M98.5,202.4L98.5,202.4L98.5,202.4L98.5,202.4Z M115.1,203.1L115.1,203.0L115.1,203.0L115.1,203.1Z M114.9,202.0L114.9,202.0L114.9,202.0L114.9,202.0Z M113.3,206.7L113.4,206.6L113.4,206.6L113.3,206.7Z M110.3,204.9L110.3,204.9L110.3,204.8L110.3,204.9Z M108.7,203.5L108.7,203.5L108.7,203.5L108.7,203.5Z M107.0,203.0L107.0,203.0L107.0,203.0L107.0,203.0Z M99.2,204.6L99.2,204.7L99.2,204.6L99.2,204.6Z M123.6,208.6L123.6,208.5L123.6,208.5L123.6,208.6Z M111.8,201.2L111.8,201.2L111.8,201.2L111.8,201.2Z M99.3,203.4L99.3,203.5L99.3,203.4L99.3,203.4Z M113.4,202.2L113.4,202.2L113.4,202.2L113.4,202.2Z M110.6,215.7L110.7,215.8L110.7,215.7L110.6,215.7Z M104.5,210.7L104.6,210.7L104.6,210.7L104.5,210.7Z M105.6,202.3L105.6,202.3L105.6,202.3L105.6,202.3Z M99.2,203.3L99.2,203.3L99.2,203.3L99.2,203.3Z "/><path d="M86.3,166.0L86.3,166.0L90.9,167.7L106.7,166.6L119.5,171.0L123.2,174.8L129.3,169.6L133.6,171.7L133.6,171.7L133.6,171.6L141.9,163.1L147.5,160.4L147.3,149.6L147.3,149.6L147.1,150.7L145.6,150.4L145.2,147.9L145.2,147.9L141.8,147.3L141.0,146.6L141.0,145.8L140.9,145.8L136.1,143.2L119.8,150.5L111.2,135.6L101.6,134.3L101.7,129.6L90.3,130.9L84.6,139.4L84.6,139.4L87.4,155.3L86.3,166.0L86.3,166.0Z M109.0,129.9L109.5,130.3L109.7,129.5L109.0,129.9Z M108.9,130.3L109.0,131.0L109.5,131.0L108.9,130.3Z M87.6,131.6L88.6,131.4L87.8,131.5L87.6,131.6Z M138.3,144.7L138.7,144.5L138.6,144.3L138.3,144.7Z M110.9,134.3L111.2,134.3L111.2,134.3L110.9,134.3Z M106.5,130.2L106.6,130.2L106.6,130.2L106.5,130.2Z M139.9,144.7L139.9,144.8L139.9,144.7L139.9,144.7Z M110.7,134.3L110.8,134.3L110.8,134.3L110.7,134.3Z M87.2,131.7L87.3,131.9L87.4,131.7L87.2,131.7Z M115.2,141.6L115.2,141.7L115.3,141.6L115.2,141.6Z M88.8,131.6L88.9,131.8L89.0,131.7L88.8,131.6Z M99.8,129.4L100.0,129.5L100.0,129.5L99.8,129.4Z M91.2,127.3L91.5,127.4L91.4,127.3L91.2,127.3Z M109.7,131.0L109.8,131.0L109.8,130.9L109.7,131.0Z M91.4,127.6L91.5,127.6L91.6,127.5L91.4,127.6Z M107.1,131.4L107.2,131.4L107.2,131.4L107.1,131.4Z M108.8,130.3L108.9,130.3L108.9,130.2L108.8,130.3Z M110.3,129.8L110.4,129.8L110.4,129.7L110.3,129.8Z M109.9,129.5L109.9,129.5L109.9,129.5L109.9,129.5Z M110.2,129.2L110.2,129.2L110.2,129.1L110.2,129.2Z M109.7,130.5L109.9,130.4L109.9,130.4L109.7,130.5Z M88.7,131.1L88.7,131.2L88.8,131.2L88.7,131.1Z M93.5,126.6L93.7,126.6L93.6,126.5L93.5,126.6Z M106.9,131.6L107.0,131.6L106.9,131.6L106.9,131.6Z M90.7,129.6L90.8,129.7L90.9,129.7L90.7,129.6Z M90.2,130.1L90.2,130.2L90.2,130.1L90.2,130.1Z M90.3,129.9L90.4,130.0L90.4,130.0L90.3,129.9Z M107.4,128.8L107.6,128.7L107.4,128.7L107.4,128.8Z M102.0,129.6L102.0,129.9L102.1,129.8L102.0,129.6Z M99.9,129.7L99.9,129.7L99.9,129.7L99.9,129.7Z M88.9,131.8L88.9,131.8L88.9,131.8L88.9,131.8Z M92.5,127.0L92.7,127.0L92.6,127.0L92.5,127.0Z M110.1,130.5L110.2,130.6L110.2,130.4L110.1,130.5Z M108.0,130.6L108.1,130.6L108.0,130.6L108.0,130.6Z M109.9,130.6L110.0,130.6L110.1,130.6L109.9,130.6Z M106.4,131.7L106.5,131.7L106.5,131.7L106.4,131.7Z M108.6,131.0L108.6,131.0L108.7,131.1L108.6,131.0Z M111.2,134.4L111.2,134.4L111.3,134.4L111.2,134.4Z M107.4,129.2L107.4,129.2L107.4,129.2L107.4,129.2Z M98.1,129.4L98.1,129.4L98.2,129.4L98.1,129.4Z M88.7,132.0L88.7,132.0L88.7,131.9L88.7,132.0Z M87.3,132.2L87.4,132.3L87.3,132.2L87.3,132.2Z M97.9,129.7L97.9,129.7L97.9,129.7L97.9,129.7Z M89.9,130.1L89.9,130.1L89.9,130.1L89.9,130.1Z M87.0,133.3L87.4,133.6L87.5,133.6L87.0,133.3Z M146.8,150.1L146.9,150.1L147.0,150.1L146.8,150.1Z M138.2,144.4L138.3,144.2L138.3,144.3L138.2,144.4Z M94.3,129.8L94.4,130.5L94.5,130.5L94.3,129.8Z M90.7,129.8L90.8,129.8L90.8,129.8L90.7,129.8Z M111.4,134.3L111.4,134.3L111.4,134.3L111.4,134.3Z M99.4,130.3L99.5,130.3L99.4,130.2L99.4,130.3Z M109.7,130.2L109.8,130.2L109.9,130.2L109.7,130.2Z M108.2,131.0L108.2,130.9L108.2,130.9L108.2,131.0Z M110.1,129.8L110.2,129.8L110.2,129.7L110.1,129.8Z M108.9,131.1L108.9,131.1L108.9,131.1L108.9,131.1Z M102.1,128.7L102.1,128.8L102.2,128.7L102.1,128.7Z M107.4,127.8L107.4,127.7L107.4,127.7L107.4,127.8Z M89.8,130.1L89.8,130.1L89.8,130.1L89.8,130.1Z M124.6,144.8L125.0,145.0L125.0,144.8L124.6,144.8Z M87.3,131.5L87.3,131.6L87.4,131.6L87.3,131.5Z M111.0,134.6L111.1,134.6L111.1,134.6L111.0,134.6Z M90.9,127.8L91.0,127.7L90.9,127.7L90.9,127.8Z M138.6,144.6L138.6,144.6L138.6,144.6L138.6,144.6Z M98.5,129.7L98.6,129.8L98.6,129.7L98.5,129.7Z M89.4,130.5L89.4,130.6L89.5,130.6L89.4,130.5Z M98.6,130.3L98.6,130.4L98.7,130.3L98.6,130.3Z M109.6,130.9L109.7,130.8L109.6,130.8L109.6,130.9Z M108.9,130.0L108.9,130.0L109.0,130.0L108.9,130.0Z M87.4,132.1L87.5,132.1L87.5,132.1L87.4,132.1Z M146.8,150.2L146.8,150.3L146.9,150.2L146.8,150.2Z M87.1,131.7L87.2,131.8L87.1,131.8L87.1,131.7Z M108.4,130.7L108.4,130.8L108.5,130.8L108.4,130.7Z M108.4,131.0L108.5,131.0L108.4,131.0L108.4,131.0Z M99.0,130.0L99.2,130.0L99.2,130.0L99.0,130.0Z M109.8,130.7L109.8,130.7L109.8,130.7L109.8,130.7Z M97.6,129.8L97.7,129.9L97.7,129.8L97.6,129.8Z M107.1,128.0L107.1,128.0L107.1,128.0L107.1,128.0Z M98.7,129.8L98.7,129.8L98.7,129.7L98.7,129.8Z M98.5,130.2L98.6,130.2L98.6,130.2L98.5,130.2Z M98.5,129.8L98.7,130.0L98.7,129.9L98.5,129.8Z M89.4,131.6L89.4,131.7L89.4,131.7L89.4,131.6Z M88.0,134.2L88.0,134.2L88.0,134.2L88.0,134.2Z M133.5,140.7L133.6,140.7L133.6,140.7L133.5,140.7Z M97.5,130.0L97.7,130.1L97.6,130.0L97.5,130.0Z M87.6,132.5L87.6,132.5L87.6,132.5L87.6,132.5Z M137.9,144.5L138.0,144.5L138.0,144.5L137.9,144.5Z M111.3,134.3L111.3,134.4L111.3,134.3L111.3,134.3Z M98.6,129.5L98.6,129.5L98.6,129.5L98.6,129.5Z M88.2,131.1L88.2,131.1L88.3,131.1L88.2,131.1Z M109.7,130.2L109.7,130.2L109.7,130.2L109.7,130.2Z M108.8,131.0L108.8,131.0L108.8,131.0L108.8,131.0Z M106.9,128.1L106.9,128.1L106.9,128.1L106.9,128.1Z M106.9,128.1L106.9,128.1L106.9,128.1L106.9,128.1Z M88.9,132.3L88.9,132.3L88.9,132.3L88.9,132.3Z M138.3,144.8L138.4,144.9L138.4,144.9L138.3,144.8Z M110.1,130.1L110.1,130.1L110.2,130.1L110.1,130.1Z M109.8,130.6L109.8,130.6L109.8,130.6L109.8,130.6Z M107.2,127.9L107.2,127.9L107.2,127.9L107.2,127.9Z M99.5,129.7L99.5,129.8L99.5,129.8L99.5,129.7Z M99.4,130.2L99.4,130.2L99.4,130.2L99.4,130.2Z M87.4,132.2L87.4,132.2L87.4,132.2L87.4,132.2Z M124.4,142.4L124.6,142.4L124.5,142.4L124.4,142.4Z M112.8,138.8L112.8,138.8L112.8,138.7L112.8,138.8Z M110.0,130.5L110.0,130.5L110.0,130.5L110.0,130.5Z M109.9,129.9L110.0,129.9L109.9,129.9L109.9,129.9Z M109.6,130.6L109.6,130.6L109.6,130.6L109.6,130.6Z M107.2,127.9L107.2,127.9L107.2,127.9L107.2,127.9Z M108.8,131.0L108.8,131.0L108.8,131.0L108.8,131.0Z M102.6,128.9L102.6,128.9L102.6,128.9L102.6,128.9Z M86.9,132.7L87.0,132.8L87.0,132.8L86.9,132.7Z M113.4,138.7L113.4,138.7L113.4,138.7L113.4,138.7Z M98.9,130.2L99.0,130.2L99.0,130.2L98.9,130.2Z M146.8,149.9L146.9,150.0L146.9,149.9L146.8,149.9Z M138.0,145.0L138.0,145.0L138.1,145.0L138.0,145.0Z M109.7,130.2L109.8,130.2L109.8,130.2L109.7,130.2Z M87.6,132.4L87.6,132.4L87.6,132.4L87.6,132.4Z M87.6,132.4L87.6,132.4L87.6,132.4L87.6,132.4Z M110.0,130.4L110.0,130.4L110.0,130.4L110.0,130.4Z M109.9,130.6L109.9,130.6L109.9,130.6L109.9,130.6Z M109.8,130.7L109.8,130.7L109.8,130.7L109.8,130.7Z M109.6,130.6L109.7,130.6L109.7,130.6L109.6,130.6Z M109.4,130.2L109.5,130.2L109.5,130.2L109.4,130.2Z M108.1,128.6L108.1,128.6L108.1,128.6L108.1,128.6Z M107.0,128.1L107.0,128.1L107.0,128.1L107.0,128.1Z M98.8,129.7L98.8,129.7L98.8,129.7L98.8,129.7Z M95.6,130.8L95.7,130.8L95.7,130.8L95.6,130.8Z M90.2,129.9L90.3,129.9L90.3,129.9L90.2,129.9Z M146.7,150.0L146.7,150.0L146.8,150.0L146.7,150.0Z M111.0,134.7L111.0,134.7L111.0,134.7L111.0,134.7Z M110.8,134.3L110.8,134.3L110.8,134.3L110.8,134.3Z M110.0,130.4L110.0,130.4L110.0,130.4L110.0,130.4Z M109.6,130.8L109.6,130.8L109.6,130.8L109.6,130.8Z M109.5,130.6L109.5,130.6L109.5,130.6L109.5,130.6Z M106.9,128.1L106.9,128.1L106.9,128.1L106.9,128.1Z M90.0,129.9L90.0,130.0L90.1,130.0L90.0,129.9Z M110.0,130.0L110.0,130.0L110.0,130.0L110.0,130.0Z M109.8,130.7L109.8,130.7L109.8,130.7L109.8,130.7Z M108.8,131.1L108.8,131.1L108.9,131.0L108.8,131.1Z M108.8,131.1L108.8,131.1L108.8,131.1L108.8,131.1Z M102.4,128.8L102.5,128.8L102.5,128.8L102.4,128.8Z M98.7,129.8L98.7,129.8L98.7,129.8L98.7,129.8Z M90.1,129.9L90.1,129.9L90.1,129.8L90.1,129.9Z M88.8,130.3L88.8,130.4L88.8,130.3L88.8,130.3Z M122.4,142.4L122.5,142.4L122.5,142.4L122.4,142.4Z M115.9,140.9L115.9,140.9L115.9,140.9L115.9,140.9Z M110.1,129.9L110.1,129.9L110.1,129.9L110.1,129.9Z M108.9,131.0L108.9,131.0L108.9,131.0L108.9,131.0Z M108.9,130.9L108.9,130.9L108.9,130.9L108.9,130.9Z M101.8,130.1L101.8,130.1L101.8,130.1L101.8,130.1Z M98.6,130.1L98.7,130.1L98.7,130.1L98.6,130.1Z M109.8,130.1L109.8,130.1L109.8,130.1L109.8,130.1Z M100.4,129.4L100.4,129.4L100.4,129.4L100.4,129.4Z M99.9,129.6L99.9,129.6L99.9,129.6L99.9,129.6Z M98.6,129.6L98.7,129.6L98.7,129.6L98.6,129.6Z M138.4,144.5L138.4,144.5L138.4,144.5L138.4,144.5Z M98.6,130.4L98.6,130.4L98.6,130.4L98.6,130.4Z M98.5,130.4L98.5,130.4L98.5,130.4L98.5,130.4Z M98.0,130.0L98.0,130.0L98.0,130.0L98.0,130.0Z M91.3,130.3L91.3,130.3L91.3,130.3L91.3,130.3Z M90.1,129.9L90.1,130.0L90.1,129.9L90.1,129.9Z M90.0,130.0L90.0,129.9L90.0,129.9L90.0,130.0Z M89.5,131.5L89.5,131.5L89.5,131.5L89.5,131.5Z "/><path d="M86.0,189.5L79.7,170.6L80.6,168.0L86.3,166.0L86.3,166.0L86.3,166.0L87.4,155.3L84.6,139.4L84.6,139.4L78.9,135.9L76.5,140.0L59.4,136.5L42.1,148.8L48.0,154.8L55.2,153.7L63.9,158.3L53.5,157.6L47.2,159.2L58.3,163.0L59.9,167.2L42.0,171.0L53.9,177.2L58.5,186.2L64.6,177.5L72.5,183.3L86.0,189.4L86.0,189.5Z M29.1,146.9L33.1,146.5L32.0,145.4L29.1,146.9Z M67.9,190.7L68.3,190.7L68.4,190.6L67.9,190.7Z M34.6,149.3L34.8,149.1L34.8,149.1L34.6,149.3Z M69.4,191.3L69.5,191.4L69.5,191.4L69.4,191.3Z M37.1,170.5L37.6,170.6L37.4,170.4L37.1,170.5Z M34.9,149.2L35.1,149.2L35.0,149.1L34.9,149.2Z M48.3,140.1L48.4,140.0L48.4,139.9L48.3,140.1Z M48.9,140.9L49.0,141.0L49.1,140.9L48.9,140.9Z M38.7,153.8L39.5,153.0L39.4,153.1L38.7,153.8Z M33.7,148.6L33.8,148.3L33.7,148.3L33.7,148.6Z M61.6,182.3L62.1,183.1L62.2,183.1L61.6,182.3Z M54.0,161.6L54.1,161.6L54.2,161.4L54.0,161.6Z M68.9,191.8L69.0,191.8L69.0,191.8L68.9,191.8Z M68.0,191.1L68.1,191.1L68.1,191.1L68.0,191.1Z M38.1,151.8L38.1,151.9L38.1,151.9L38.1,151.8Z M35.9,152.0L36.3,151.9L36.3,151.7L35.9,152.0Z M68.5,191.1L68.6,191.1L68.5,191.0L68.5,191.1Z M30.6,145.3L31.0,145.5L31.1,145.4L30.6,145.3Z M69.5,135.8L69.9,135.9L70.0,135.8L69.5,135.8Z M69.2,190.7L69.3,190.7L69.3,190.7L69.2,190.7Z M37.2,151.8L37.7,152.0L37.9,152.0L37.2,151.8Z M57.2,168.6L57.3,168.8L57.3,168.7L57.2,168.6Z M64.0,137.3L64.1,137.4L64.1,137.3L64.0,137.3Z M50.8,138.3L50.9,138.4L50.9,138.4L50.8,138.3Z M49.1,140.6L49.2,140.5L49.2,140.5L49.1,140.6Z M61.9,183.4L62.2,183.7L62.0,183.3L61.9,183.4Z M29.9,147.2L30.0,147.2L30.0,147.2L29.9,147.2Z M67.0,190.5L67.0,190.5L67.0,190.5L67.0,190.5Z M69.2,191.4L69.2,191.4L69.2,191.3L69.2,191.4Z M68.9,191.8L68.9,191.8L68.9,191.8L68.9,191.8Z M68.0,191.0L68.1,191.0L68.1,191.0L68.0,191.0Z M68.1,191.6L68.3,191.9L68.5,191.5L68.1,191.6Z M42.6,146.0L42.7,146.1L42.7,146.0L42.6,146.0Z M59.8,166.4L59.8,166.4L59.8,166.4L59.8,166.4Z M38.2,171.1L38.3,171.2L38.3,171.2L38.2,171.1Z M44.7,141.7L45.0,141.8L44.9,141.6L44.7,141.7Z M69.2,191.2L69.2,191.2L69.2,191.2L69.2,191.2Z M53.4,138.7L53.5,138.6L53.4,138.6L53.4,138.7Z M61.8,183.1L61.9,183.2L61.9,183.1L61.8,183.1Z M29.4,146.4L29.4,146.4L29.4,146.4L29.4,146.4Z M67.3,187.7L67.4,187.7L67.5,187.7L67.3,187.7Z M59.3,136.5L59.3,136.6L59.3,136.5L59.3,136.5Z M62.1,138.0L62.1,138.1L62.2,138.1L62.1,138.0Z M68.1,190.4L68.1,190.5L68.1,190.5L68.1,190.4Z M67.5,190.2L67.5,190.2L67.5,190.2L67.5,190.2Z M60.1,158.7L60.2,158.8L60.2,158.6L60.1,158.7Z M47.3,159.6L47.3,159.6L47.3,159.5L47.3,159.6Z M71.9,134.7L72.0,134.7L72.0,134.7L71.9,134.7Z M36.1,150.0L36.1,149.9L36.1,149.9L36.1,150.0Z M74.1,138.6L74.2,138.7L74.2,138.7L74.1,138.6Z M68.3,190.4L68.3,190.4L68.3,190.4L68.3,190.4Z M69.1,191.3L69.1,191.3L69.1,191.3L69.1,191.3Z M50.1,139.0L50.2,139.0L50.2,138.9L50.1,139.0Z M62.2,138.2L62.2,138.3L62.3,138.2L62.2,138.2Z M54.0,161.7L54.1,161.7L54.1,161.7L54.0,161.7Z M51.1,157.1L51.1,157.1L51.2,157.0L51.1,157.1Z M43.1,169.6L43.1,169.6L43.1,169.6L43.1,169.6Z M76.2,138.0L76.2,138.1L76.2,138.0L76.2,138.0Z M51.4,138.6L51.5,138.8L51.6,138.8L51.4,138.6Z M50.6,139.4L50.7,139.4L50.7,139.2L50.6,139.4Z M75.9,188.5L75.9,188.5L76.0,188.5L75.9,188.5Z M74.7,137.7L74.7,137.7L74.7,137.7L74.7,137.7Z M54.4,184.7L54.5,184.7L54.4,184.7L54.4,184.7Z M56.7,168.3L56.7,168.4L56.7,168.4L56.7,168.3Z M49.3,162.8L49.3,162.8L49.3,162.7L49.3,162.8Z M54.9,138.4L54.9,138.5L54.9,138.4L54.9,138.4Z M53.4,139.1L53.5,139.1L53.5,139.1L53.4,139.1Z M51.3,138.6L51.3,138.6L51.3,138.6L51.3,138.6Z M35.8,150.2L35.9,150.4L36.0,150.2L35.8,150.2Z M80.7,188.6L80.7,188.6L80.7,188.6L80.7,188.6Z M64.6,136.9L64.6,137.0L64.6,137.0L64.6,136.9Z M50.9,156.9L51.0,156.9L51.0,156.8L50.9,156.9Z M42.0,148.6L42.1,148.7L42.1,148.7L42.0,148.6Z M61.9,183.0L61.9,183.0L61.9,183.0L61.9,183.0Z M59.5,136.5L59.6,136.6L59.6,136.6L59.5,136.5Z M47.0,140.9L47.0,141.0L47.0,140.9L47.0,140.9Z M61.8,138.1L61.8,138.2L61.8,138.1L61.8,138.1Z M49.1,140.0L49.2,140.2L49.2,140.1L49.1,140.0Z M33.5,148.9L33.5,148.9L33.6,148.8L33.5,148.9Z M76.4,137.6L76.5,137.7L76.5,137.7L76.4,137.6Z M49.6,139.3L49.6,139.4L49.6,139.3L49.6,139.3Z M48.1,140.9L48.2,140.7L48.1,140.8L48.1,140.9Z M64.2,137.3L64.2,137.3L64.2,137.3L64.2,137.3Z M64.1,137.3L64.1,137.3L64.2,137.3L64.1,137.3Z M62.2,138.1L62.2,138.1L62.2,138.1L62.2,138.1Z M59.4,136.5L59.4,136.5L59.4,136.5L59.4,136.5Z M53.5,155.9L53.5,156.0L53.6,156.0L53.5,155.9Z M50.8,138.9L50.9,138.9L50.9,138.9L50.8,138.9Z M43.1,170.2L43.1,170.2L43.1,170.2L43.1,170.2Z M36.2,151.5L36.2,151.5L36.2,151.4L36.2,151.5Z M77.0,137.9L77.0,138.0L77.1,137.9L77.0,137.9Z M76.1,137.1L76.1,137.1L76.1,137.0L76.1,137.1Z M59.2,136.5L59.2,136.5L59.2,136.5L59.2,136.5Z M53.3,139.1L53.3,139.1L53.3,139.1L53.3,139.1Z M43.1,170.2L43.1,170.2L43.1,170.2L43.1,170.2Z M43.0,169.9L43.0,169.9L43.0,169.8L43.0,169.9Z M62.0,138.1L62.0,138.1L62.0,138.1L62.0,138.1Z M51.2,138.8L51.3,138.8L51.2,138.8L51.2,138.8Z M48.8,140.1L48.9,140.1L48.9,140.1L48.8,140.1Z M44.0,169.8L44.0,169.8L44.0,169.8L44.0,169.8Z M43.1,170.2L43.1,170.2L43.1,170.2L43.1,170.2Z M75.5,138.1L75.5,138.1L75.5,138.1L75.5,138.1Z M75.2,137.8L75.3,137.8L75.2,137.8L75.2,137.8Z M75.1,137.0L75.1,137.0L75.1,137.0L75.1,137.0Z M74.9,135.7L74.9,135.7L75.0,135.7L74.9,135.7Z M72.8,134.5L72.8,134.6L72.8,134.6L72.8,134.5Z M64.0,137.2L64.1,137.2L64.1,137.2L64.0,137.2Z M63.8,137.6L63.8,137.6L63.8,137.6L63.8,137.6Z M61.4,138.4L61.5,138.4L61.5,138.4L61.4,138.4Z M47.2,159.6L47.2,159.6L47.2,159.6L47.2,159.6Z M80.8,188.5L80.8,188.5L80.8,188.5L80.8,188.5Z M59.2,136.4L59.2,136.4L59.2,136.4L59.2,136.4Z M52.6,137.6L52.7,137.6L52.7,137.6L52.6,137.6Z M47.2,141.1L47.3,141.2L47.3,141.1L47.2,141.1Z M46.2,141.3L46.2,141.3L46.2,141.3L46.2,141.3Z M76.4,137.3L76.4,137.5L76.4,137.5L76.4,137.3Z M75.8,137.8L75.8,137.9L75.8,137.8L75.8,137.8Z M62.6,137.5L62.7,137.5L62.6,137.4L62.6,137.5Z M62.1,138.3L62.1,138.3L62.1,138.3L62.1,138.3Z M51.2,138.3L51.2,138.3L51.2,138.3L51.2,138.3Z M51.0,138.3L51.0,138.3L51.0,138.2L51.0,138.3Z M50.8,138.6L50.9,138.7L50.9,138.6L50.8,138.6Z M44.0,169.7L44.0,169.7L44.0,169.7L44.0,169.7Z M43.0,169.6L43.0,169.6L43.0,169.6L43.0,169.6Z M72.1,135.2L72.1,135.2L72.1,135.2L72.1,135.2Z M63.3,137.6L63.4,137.7L63.4,137.6L63.3,137.6Z M62.4,138.0L62.4,138.0L62.4,138.0L62.4,138.0Z M62.3,138.1L62.3,138.1L62.3,138.1L62.3,138.1Z M61.4,138.4L61.4,138.4L61.4,138.4L61.4,138.4Z M52.8,137.8L52.8,137.8L52.8,137.8L52.8,137.8Z M46.2,169.4L46.2,169.4L46.3,169.4L46.2,169.4Z M48.2,141.1L48.2,141.1L48.2,141.1L48.2,141.1Z M76.6,138.1L76.7,138.1L76.7,138.1L76.6,138.1Z M76.4,137.9L76.4,137.9L76.4,137.9L76.4,137.9Z M75.9,138.0L76.0,138.0L75.9,138.0L75.9,138.0Z M75.7,137.9L75.7,137.9L75.7,137.9L75.7,137.9Z M75.4,136.8L75.4,136.8L75.4,136.8L75.4,136.8Z M74.8,136.5L74.8,136.5L74.8,136.5L74.8,136.5Z M64.6,137.0L64.6,137.0L64.6,137.0L64.6,137.0Z M64.5,137.0L64.5,137.0L64.5,137.0L64.5,137.0Z M60.8,186.1L60.8,186.0L60.8,186.0L60.8,186.1Z M63.6,137.4L63.6,137.5L63.6,137.4L63.6,137.4Z M63.4,137.7L63.4,137.8L63.4,137.7L63.4,137.7Z M62.4,138.1L62.4,138.1L62.4,138.1L62.4,138.1Z M59.4,136.5L59.4,136.5L59.4,136.5L59.4,136.5Z M53.3,139.1L53.3,139.1L53.3,139.1L53.3,139.1Z M51.3,162.7L51.3,162.7L51.3,162.6L51.3,162.7Z M52.2,137.5L52.2,137.5L52.2,137.5L52.2,137.5Z M50.9,138.2L50.9,138.2L50.9,138.2L50.9,138.2Z M50.7,138.5L50.7,138.5L50.7,138.5L50.7,138.5Z M42.8,170.8L42.8,170.9L42.8,170.8L42.8,170.8Z M76.2,138.0L76.2,138.0L76.2,138.0L76.2,138.0Z M76.2,137.8L76.2,137.9L76.2,137.8L76.2,137.8Z M75.9,137.9L75.9,137.9L75.9,137.9L75.9,137.9Z M59.5,136.3L59.5,136.3L59.5,136.2L59.5,136.3Z M59.5,136.2L59.5,136.2L59.5,136.2L59.5,136.2Z M46.9,159.7L46.9,159.7L46.9,159.7L46.9,159.7Z M76.4,136.9L76.4,137.0L76.4,137.0L76.4,136.9Z M75.1,137.6L75.2,137.6L75.2,137.6L75.1,137.6Z M70.0,191.6L70.1,191.6L70.1,191.6L70.0,191.6Z M72.8,134.6L72.8,134.6L72.8,134.6L72.8,134.6Z M64.5,137.0L64.5,137.0L64.5,137.0L64.5,137.0Z M62.3,138.1L62.3,138.1L62.3,138.1L62.3,138.1Z M60.8,157.4L60.8,157.4L60.8,157.4L60.8,157.4Z M59.6,136.3L59.7,136.4L59.7,136.4L59.6,136.3Z M59.4,136.6L59.5,136.5L59.5,136.5L59.4,136.6Z M59.2,136.4L59.2,136.4L59.2,136.4L59.2,136.4Z M59.2,136.4L59.2,136.4L59.2,136.4L59.2,136.4Z M52.6,137.6L52.6,137.7L52.7,137.6L52.6,137.6Z M52.1,137.2L52.1,137.3L52.1,137.2L52.1,137.2Z M52.1,137.3L52.1,137.3L52.1,137.3L52.1,137.3Z M50.9,138.6L50.9,138.6L50.9,138.6L50.9,138.6Z M43.1,170.2L43.1,170.2L43.1,170.2L43.1,170.2Z M76.0,136.9L76.0,136.9L76.0,136.8L76.0,136.9Z M65.2,136.5L65.2,136.5L65.2,136.5L65.2,136.5Z M64.6,137.0L64.6,137.0L64.6,137.0L64.6,137.0Z M63.8,137.5L63.8,137.5L63.8,137.5L63.8,137.5Z M61.8,138.2L61.8,138.2L61.8,138.2L61.8,138.2Z M61.7,138.3L61.7,138.3L61.7,138.3L61.7,138.3Z M59.3,136.5L59.3,136.5L59.4,136.5L59.3,136.5Z M59.2,136.5L59.2,136.5L59.2,136.5L59.2,136.5Z M52.7,137.6L52.7,137.6L52.7,137.6L52.7,137.6Z M52.1,137.2L52.1,137.2L52.1,137.2L52.1,137.2Z M50.9,138.1L50.9,138.1L50.9,138.1L50.9,138.1Z M50.7,138.7L50.7,138.7L50.7,138.7L50.7,138.7Z M42.0,171.0L42.0,171.0L42.0,171.0L42.0,171.0Z M41.8,170.9L41.8,170.9L41.8,170.9L41.8,170.9Z M75.1,137.7L75.1,137.7L75.1,137.7L75.1,137.7Z M75.0,137.6L75.1,137.6L75.1,137.6L75.0,137.6Z M74.1,137.8L74.1,137.8L74.1,137.8L74.1,137.8Z M64.1,137.5L64.1,137.5L64.1,137.5L64.1,137.5Z M63.1,137.9L63.1,137.9L63.1,137.9L63.1,137.9Z M62.8,137.5L62.8,137.5L62.8,137.5L62.8,137.5Z M61.7,138.3L61.7,138.3L61.7,138.3L61.7,138.3Z M59.4,136.5L59.4,136.5L59.4,136.5L59.4,136.5Z M59.3,136.5L59.4,136.5L59.4,136.5L59.3,136.5Z M59.4,136.4L59.4,136.4L59.4,136.4L59.4,136.4Z M59.3,136.5L59.3,136.5L59.3,136.5L59.3,136.5Z M59.4,136.1L59.4,136.1L59.4,136.1L59.4,136.1Z M59.3,136.5L59.3,136.5L59.3,136.5L59.3,136.5Z M54.9,138.4L54.9,138.4L54.9,138.4L54.9,138.4Z M54.5,138.6L54.5,138.6L54.5,138.6L54.5,138.6Z M54.4,138.3L54.4,138.3L54.4,138.3L54.4,138.3Z M54.4,138.2L54.4,138.2L54.4,138.2L54.4,138.2Z M54.4,138.3L54.4,138.3L54.4,138.3L54.4,138.3Z M54.4,138.3L54.4,138.3L54.4,138.3L54.4,138.3Z M53.8,138.5L53.8,138.5L53.8,138.5L53.8,138.5Z M53.4,138.6L53.4,138.6L53.4,138.6L53.4,138.6Z M53.4,138.6L53.4,138.6L53.4,138.6L53.4,138.6Z M52.7,137.8L52.8,137.8L52.8,137.8L52.7,137.8Z M52.2,137.2L52.2,137.2L52.3,137.2L52.2,137.2Z M52.1,137.6L52.1,137.6L52.1,137.6L52.1,137.6Z M52.1,137.6L52.1,137.6L52.1,137.6L52.1,137.6Z M52.1,137.2L52.2,137.2L52.2,137.2L52.1,137.2Z M52.1,137.2L52.1,137.2L52.1,137.2L52.1,137.2Z M52.1,137.2L52.1,137.2L52.1,137.2L52.1,137.2Z M52.1,137.3L52.1,137.3L52.1,137.3L52.1,137.3Z M52.1,137.3L52.1,137.3L52.1,137.3L52.1,137.3Z M51.6,138.6L51.6,138.6L51.6,138.6L51.6,138.6Z M51.5,138.5L51.5,138.5L51.5,138.5L51.5,138.5Z M51.5,138.5L51.5,138.5L51.5,138.5L51.5,138.5Z M51.5,138.5L51.5,138.5L51.5,138.5L51.5,138.5Z M51.3,138.5L51.3,138.5L51.3,138.5L51.3,138.5Z M51.1,138.4L51.1,138.4L51.1,138.4L51.1,138.4Z M51.0,138.5L51.0,138.5L51.0,138.5L51.0,138.5Z M51.0,138.5L51.0,138.5L51.0,138.5L51.0,138.5Z M50.9,138.1L50.9,138.1L50.9,138.1L50.9,138.1Z M47.9,140.5L47.9,140.5L48.0,140.5L47.9,140.5Z M42.1,170.9L42.1,170.9L42.1,170.9L42.1,170.9Z M41.8,170.9L41.8,170.9L41.8,170.9L41.8,170.9Z M41.4,170.9L41.4,170.9L41.4,170.9L41.4,170.9Z M41.3,170.9L41.3,170.9L41.3,170.9L41.3,170.9Z M59.3,136.5L59.3,136.5L59.3,136.5L59.3,136.5Z M59.3,136.5L59.3,136.5L59.3,136.5L59.3,136.5Z M59.3,136.5L59.3,136.5L59.3,136.5L59.3,136.5Z M59.3,136.5L59.3,136.5L59.3,136.5L59.3,136.5Z M59.2,136.5L59.2,136.5L59.2,136.5L59.2,136.5Z M54.9,138.5L54.9,138.5L55.0,138.5L54.9,138.5Z M54.6,138.3L54.6,138.3L54.6,138.3L54.6,138.3Z M54.6,138.4L54.6,138.4L54.6,138.4L54.6,138.4Z M54.6,138.4L54.6,138.4L54.6,138.4L54.6,138.4Z M54.4,138.3L54.4,138.3L54.4,138.3L54.4,138.3Z M54.4,138.2L54.4,138.2L54.4,138.2L54.4,138.2Z M53.9,138.9L53.9,138.9L53.9,138.9L53.9,138.9Z M53.7,138.6L53.7,138.6L53.7,138.6L53.7,138.6Z M53.7,138.5L53.7,138.6L53.7,138.6L53.7,138.5Z M53.7,138.5L53.7,138.5L53.7,138.5L53.7,138.5Z M53.5,138.6L53.5,138.6L53.5,138.6L53.5,138.6Z M53.5,138.6L53.5,138.6L53.5,138.6L53.5,138.6Z M53.4,138.6L53.4,138.6L53.4,138.6L53.4,138.6Z M53.4,138.6L53.4,138.6L53.4,138.6L53.4,138.6Z M53.3,139.0L53.3,139.0L53.4,139.0L53.3,139.0Z M53.3,138.6L53.3,138.6L53.3,138.6L53.3,138.6Z M53.3,138.6L53.3,138.6L53.3,138.6L53.3,138.6Z M53.3,138.6L53.3,138.6L53.3,138.6L53.3,138.6Z M53.3,138.6L53.3,138.6L53.3,138.6L53.3,138.6Z M52.8,137.8L52.8,137.8L52.8,137.8L52.8,137.8Z M52.8,137.8L52.8,137.8L52.8,137.8L52.8,137.8Z M52.6,137.7L52.6,137.7L52.6,137.7L52.6,137.7Z M52.5,137.6L52.5,137.6L52.5,137.6L52.5,137.6Z M52.5,137.5L52.5,137.5L52.5,137.5L52.5,137.5Z M52.5,137.6L52.5,137.6L52.5,137.6L52.5,137.6Z M52.2,137.6L52.3,137.6L52.3,137.6L52.2,137.6Z M52.2,137.4L52.2,137.4L52.2,137.4L52.2,137.4Z M52.1,137.6L52.1,137.6L52.1,137.6L52.1,137.6Z M51.6,138.4L51.7,138.4L51.7,138.4L51.6,138.4Z M51.6,138.5L51.6,138.5L51.6,138.5L51.6,138.5Z M51.6,138.4L51.6,138.4L51.6,138.4L51.6,138.4Z M51.5,138.5L51.5,138.5L51.5,138.5L51.5,138.5Z M51.0,138.5L51.0,138.5L51.0,138.5L51.0,138.5Z M50.9,138.5L51.0,138.5L51.0,138.5L50.9,138.5Z M51.0,137.9L51.0,138.0L51.0,137.9L51.0,137.9Z M50.9,138.0L50.9,138.1L50.9,138.0L50.9,138.0Z M50.9,138.1L50.9,138.1L50.9,138.1L50.9,138.1Z M50.9,138.2L50.9,138.2L50.9,138.2L50.9,138.2Z M50.8,138.3L50.8,138.3L50.8,138.3L50.8,138.3Z M50.8,138.3L50.8,138.3L50.8,138.3L50.8,138.3Z M50.8,138.2L50.8,138.2L50.8,138.2L50.8,138.2Z "/><path d="M248.3,471.6L257.4,473.7L261.3,477.7L268.5,477.8L286.2,485.4L286.3,485.5L289.0,484.9L301.6,480.4L301.9,480.4L301.8,480.3L295.6,476.5L292.0,454.8L283.1,451.3L282.2,446.5L282.2,446.5L282.2,446.5L263.6,451.3L263.3,456.9L256.6,453.8L248.2,471.4L248.3,471.6Z "/><path d="M400.4,385.2L400.6,385.2L408.1,390.0L421.3,385.5L434.8,395.5L434.8,395.5L434.9,395.5L437.4,392.1L441.7,391.0L441.7,391.0L441.7,391.0L441.4,387.3L432.6,381.5L433.0,374.6L438.8,371.9L445.2,362.0L445.2,362.0L445.1,362.0L432.3,358.2L431.3,342.4L419.3,342.7L419.7,337.5L412.2,328.0L404.2,330.9L404.2,330.9L404.2,330.9L407.2,354.9L404.5,364.5L400.4,385.1L400.4,385.2Z M409.1,383.9L412.9,378.9L415.4,381.1L409.1,383.9Z "/><path d="M444.4,447.4L452.5,453.8L464.5,454.8L469.1,449.3L483.9,444.9L487.9,431.3L494.5,427.6L494.5,427.6L488.8,419.8L487.0,416.5L481.4,411.1L481.4,411.1L481.3,411.1L467.8,413.4L466.1,411.5L455.6,417.7L446.4,416.4L446.3,416.5L446.1,416.9L446.2,416.9L444.6,430.5L448.3,434.1L447.7,441.8L444.4,447.4L444.4,447.4Z M464.8,456.2L468.5,456.1L468.4,455.3L464.8,456.2Z M475.9,455.1L477.5,454.6L478.3,453.1L475.9,455.1Z M449.0,452.6L449.5,452.9L449.5,452.7L449.0,452.6Z M448.5,452.7L448.6,452.7L448.6,452.7L448.5,452.7Z M447.5,450.1L447.8,450.2L447.7,450.1L447.5,450.1Z M449.6,453.3L449.7,453.4L449.7,453.3L449.6,453.3Z M446.8,449.9L446.8,449.9L446.8,449.8L446.8,449.9Z M484.1,445.8L484.1,445.8L484.1,445.8L484.1,445.8Z M488.7,432.0L488.7,432.0L488.7,432.0L488.7,432.0Z M446.8,449.8L446.8,449.8L446.8,449.8L446.8,449.8Z M464.8,455.9L464.8,455.9L464.8,455.9L464.8,455.9Z M454.8,450.2L454.8,450.3L454.9,450.4L454.8,450.2Z M464.2,455.1L464.2,455.1L464.2,455.0L464.2,455.1Z M452.7,454.3L452.8,454.3L452.8,454.3L452.7,454.3Z M494.2,428.1L494.3,428.1L494.3,428.1L494.2,428.1Z M468.8,456.3L468.9,456.3L468.9,456.2L468.8,456.3Z M469.4,449.7L469.5,449.7L469.5,449.7L469.4,449.7Z M494.3,428.0L494.3,428.0L494.3,428.0L494.3,428.0Z M468.6,456.2L468.6,456.2L468.7,456.2L468.6,456.2Z M468.6,456.2L468.6,456.2L468.6,456.1L468.6,456.2Z "/><path d="M446.3,416.5L446.4,416.4L455.6,417.7L466.1,411.5L467.8,413.4L481.3,411.1L481.4,411.1L481.5,411.0L493.4,404.3L489.6,401.4L483.1,387.0L489.5,378.5L489.5,378.5L489.5,375.3L487.6,369.1L490.8,362.1L490.8,362.1L474.4,374.7L469.6,372.5L457.1,374.1L447.7,386.9L450.8,389.6L441.7,391.0L441.7,391.0L441.7,391.0L437.4,392.1L434.9,395.5L434.8,395.5L434.9,395.7L435.7,404.7L437.6,410.2L446.1,416.3L446.3,416.5Z "/><path d="M385.2,434.2L399.5,435.4L411.0,440.4L413.2,434.8L417.7,438.8L429.4,438.4L430.9,446.1L444.4,447.4L444.4,447.4L447.7,441.8L448.3,434.1L444.6,430.5L446.2,416.9L446.1,416.9L445.9,417.1L435.6,420.6L423.6,417.3L405.0,407.6L404.8,407.6L404.9,407.8L397.7,420.3L392.4,427.7L385.2,434.2L385.2,434.2Z M428.5,443.4L430.0,442.2L429.5,442.1L428.5,443.4Z M432.2,448.0L432.9,448.4L433.3,448.3L432.2,448.0Z M431.6,446.9L432.1,447.2L432.1,447.2L431.6,446.9Z M430.3,446.3L430.6,446.4L430.8,446.3L430.3,446.3Z M432.5,447.4L432.9,447.7L432.9,447.6L432.5,447.4Z M430.8,442.5L430.8,442.5L430.8,442.5L430.8,442.5Z M442.1,448.5L442.4,448.7L442.3,448.6L442.1,448.5Z M430.8,442.6L430.8,442.6L430.8,442.6L430.8,442.6Z M428.4,442.6L428.5,442.6L428.5,442.6L428.4,442.6Z M430.9,442.2L430.9,442.2L430.9,442.2L430.9,442.2Z M430.9,442.3L430.9,442.3L430.9,442.3L430.9,442.3Z M430.2,446.2L430.3,446.2L430.3,446.1L430.2,446.2Z M430.9,442.3L430.9,442.3L430.9,442.3L430.9,442.3Z M435.5,446.1L435.6,446.1L435.6,446.1L435.5,446.1Z M428.9,442.4L428.9,442.4L428.9,442.4L428.9,442.4Z M426.2,439.9L426.3,439.9L426.3,439.9L426.2,439.9Z M428.8,443.1L428.8,443.1L428.8,443.1L428.8,443.1Z M428.7,442.4L428.7,442.4L428.7,442.4L428.7,442.4Z M436.6,446.4L436.6,446.4L436.6,446.4L436.6,446.4Z M433.1,448.0L433.2,448.0L433.2,448.0L433.1,448.0Z M432.1,448.2L432.1,448.2L432.1,448.2L432.1,448.2Z M431.0,442.2L431.0,442.2L431.0,442.2L431.0,442.2Z M431.9,443.5L431.9,443.5L431.9,443.4L431.9,443.5Z M430.1,442.5L430.1,442.5L430.1,442.5L430.1,442.5Z M428.7,443.2L428.7,443.3L428.7,443.2L428.7,443.2Z M433.1,448.4L433.1,448.4L433.1,448.4L433.1,448.4Z M432.9,447.7L432.9,447.7L432.9,447.7L432.9,447.7Z M431.1,442.4L431.1,442.4L431.1,442.4L431.1,442.4Z M431.0,442.5L431.0,442.5L431.0,442.4L431.0,442.5Z M428.8,443.1L428.8,443.1L428.8,443.1L428.8,443.1Z M435.7,446.1L435.7,446.1L435.7,446.1L435.7,446.1Z M435.5,446.1L435.5,446.1L435.5,446.1L435.5,446.1Z M432.1,448.1L432.1,448.1L432.1,448.1L432.1,448.1Z M430.7,446.5L430.7,446.5L430.7,446.5L430.7,446.5Z M431.7,447.1L431.7,447.1L431.7,447.1L431.7,447.1Z M430.7,446.5L430.7,446.5L430.7,446.5L430.7,446.5Z M428.8,443.1L428.8,443.2L428.8,443.1L428.8,443.1Z M433.1,448.3L433.1,448.4L433.1,448.3L433.1,448.3Z M430.8,441.8L431.0,441.9L431.0,441.9L430.8,441.8Z M432.5,447.9L432.5,447.9L432.5,447.9L432.5,447.9Z M432.5,447.9L432.5,447.9L432.5,447.9L432.5,447.9Z M428.5,443.5L428.5,443.5L428.5,443.5L428.5,443.5Z "/><path d="M494.5,427.6L505.2,417.5L517.4,408.8L516.2,403.6L521.7,397.4L522.8,390.6L509.1,390.9L494.8,385.2L489.5,378.6L489.5,378.5L483.1,387.0L489.6,401.4L493.4,404.3L481.5,411.0L481.4,411.1L481.4,411.1L487.0,416.5L488.8,419.8L494.5,427.6L494.5,427.6Z M498.6,425.8L499.4,425.7L499.1,425.7L498.6,425.8Z M499.4,425.8L499.5,425.8L499.5,425.8L499.4,425.8Z M511.1,413.0L511.2,413.0L511.2,413.0L511.1,413.0Z M500.0,425.2L500.1,425.2L500.1,425.2L500.0,425.2Z M512.2,412.9L512.2,412.9L512.2,412.9L512.2,412.9Z "/></g><g class="" id="region,"><path d="M347.7,44.4L347.3,44.1L347.2,44.3L347.7,44.4Z "/><path d="M350.1,44.5L349.9,44.4L349.5,44.4L349.6,44.8L349.8,44.9L350.1,44.5Z "/><path d="M349.8,45.2L350.0,45.2L350.1,45.0L349.8,44.9L349.8,45.2Z "/><path d="M345.9,51.2L345.9,50.7L345.7,50.9L345.9,51.2Z "/><path d="M336.3,55.7L336.2,55.3L335.4,55.6L336.3,55.7Z "/><path d="M370.0,65.5L369.9,65.3L369.5,65.5L370.0,65.5Z "/><path d="M291.5,68.9L291.3,68.5L290.9,68.9L291.5,68.9Z "/><path d="M297.4,73.2L297.1,72.9L297.2,73.2L297.4,73.2Z "/><path d="M325.1,73.4L324.6,73.0L324.8,73.9L325.1,73.4Z "/><path d="M386.6,73.1L386.4,72.8L386.2,73.3L386.6,73.1Z "/><path d="M387.3,73.5L387.4,72.9L387.3,73.0L387.3,73.5Z "/><path d="M316.9,74.8L316.7,74.9L316.9,75.3L316.9,74.8Z "/><path d="M335.0,76.5L335.0,76.4L334.6,76.7L335.0,76.5Z "/><path d="M386.7,75.8L386.4,76.0L387.7,76.6L386.7,75.8Z "/><path d="M335.4,85.0L334.9,84.7L335.2,85.3L335.4,85.0Z "/><path d="M342.5,88.0L342.3,87.5L342.2,87.9L342.5,88.0Z "/><path d="M359.5,91.2L359.2,90.8L359.1,90.8L359.5,91.2Z "/><path d="M393.6,94.8L393.5,94.9L393.8,95.2L393.6,94.8Z "/><path d="M247.3,97.4L249.7,104.3L254.1,107.1L257.9,102.5L266.0,110.1L264.7,114.2L270.1,112.6L256.4,109.9L261.1,104.1L258.5,101.6L254.4,107.0L254.3,100.7L247.3,97.4Z "/><path d="M239.6,103.0L239.6,102.4L239.3,102.9L239.6,103.0Z "/><path d="M421.3,105.5L420.8,105.6L421.0,105.7L421.3,105.5Z "/><path d="M264.7,109.6L264.2,110.0L264.4,110.4L264.7,109.6Z "/><path d="M265.6,110.7L265.7,110.5L265.1,110.8L265.6,110.7Z "/><path d="M425.2,107.8L424.8,107.3L424.5,107.7L425.2,107.8Z "/><path d="M474.7,133.3L473.2,133.5L474.8,134.8L474.7,133.3Z "/><path d="M394.3,146.2L396.9,147.9L395.8,146.4L394.3,146.2Z "/><path d="M423.8,111.8L423.5,111.6L423.7,111.8L423.8,111.8Z "/><path d="M446.5,112.4L446.4,111.6L446.4,112.0L446.5,112.4Z "/><path d="M445.4,112.5L445.3,111.8L445.1,111.9L445.4,112.5Z "/><path d="M464.9,113.8L464.4,113.3L464.4,113.4L464.9,113.8Z "/><path d="M476.8,113.1L476.9,113.1L476.2,112.7L476.8,113.1Z "/><path d="M520.7,118.2L521.2,118.1L521.2,117.9L520.7,118.2Z M520.6,118.4L519.6,119.1L520.0,118.8L520.6,118.4Z "/><path d="M474.4,117.1L473.9,116.8L473.9,117.1L474.4,117.1Z "/><path d="M471.3,117.3L471.8,117.9L471.9,117.8L471.3,117.3Z "/><path d="M432.3,120.0L432.5,120.8L431.8,121.4L432.3,120.0Z "/><path d="M294.8,125.2L294.8,124.7L294.6,125.0L294.8,125.2Z "/><path d="M474.5,119.3L474.0,119.1L473.9,119.6L474.5,119.3Z "/><path d="M292.9,127.7L292.4,127.4L292.7,127.8L292.9,127.7Z "/><path d="M463.1,123.0L463.1,123.6L463.4,123.5L463.1,123.0Z "/><path d="M400.9,127.1L400.3,127.3L400.9,127.6L400.9,127.1Z "/><path d="M476.8,127.4L476.9,127.0L476.6,127.3L476.8,127.4Z "/><path d="M517.3,125.5L517.6,125.5L517.4,125.1L517.3,125.5Z M517.2,126.4L517.3,125.5L517.2,125.9L517.2,126.4Z "/><path d="M101.1,134.0L101.1,132.6L100.6,132.9L101.1,134.0Z "/><path d="M469.1,131.8L468.2,131.9L468.6,132.3L469.1,131.8Z "/><path d="M293.4,138.2L294.2,138.6L294.3,138.4L293.4,138.2Z "/><path d="M162.6,136.4L162.5,136.2L162.1,136.4L162.6,136.4Z "/><path d="M320.7,140.2L320.3,139.5L320.2,140.1L320.7,140.2Z "/><path d="M513.1,130.5L513.0,130.5L513.0,130.5L513.1,130.5Z "/><path d="M473.2,135.4L473.3,137.1L474.4,135.8L473.2,135.4Z "/><path d="M462.1,138.7L462.2,138.0L461.9,138.0L462.1,138.7Z "/><path d="M470.9,137.5L470.9,138.0L471.2,138.2L470.9,137.5Z "/><path d="M73.6,140.6L73.6,138.3L73.5,139.4L73.6,140.6Z "/><path d="M288.6,145.4L289.0,146.0L289.0,145.7L288.6,145.4Z "/><path d="M218.6,145.5L218.5,145.2L218.1,145.6L218.6,145.5Z "/><path d="M453.1,142.4L451.0,141.3L451.3,141.8L453.1,142.4Z "/><path d="M443.4,143.0L443.0,143.2L443.4,143.3L443.4,143.0Z "/><path d="M144.9,145.7L144.7,147.6L147.3,149.6L144.9,145.7Z "/><path d="M446.7,144.0L445.9,143.7L446.4,144.1L446.7,144.0Z "/><path d="M52.5,140.8L52.3,141.1L53.3,141.7L52.5,140.8Z "/><path d="M182.0,175.2L181.5,174.9L181.5,175.2L182.0,175.2Z "/><path d="M51.1,142.2L51.8,142.9L52.6,143.1L51.1,142.2Z "/><path d="M327.8,152.2L327.5,152.7L327.8,152.7L327.8,152.2Z "/><path d="M391.6,153.4L392.0,152.5L391.3,152.5L391.6,153.4Z "/><path d="M157.4,152.4L156.9,152.9L157.3,152.6L157.4,152.4Z "/><path d="M506.4,146.9L505.3,149.2L506.2,148.8L506.4,146.9Z "/><path d="M44.7,146.7L43.3,146.6L43.4,146.8L44.7,146.7Z "/><path d="M154.0,154.8L154.1,154.5L153.9,154.6L154.0,154.8Z "/><path d="M60.9,149.7L60.9,149.5L60.7,149.7L60.9,149.7Z "/><path d="M140.6,156.1L140.6,155.7L140.3,155.9L140.6,156.1Z "/><path d="M137.0,157.1L137.3,156.4L137.1,156.8L137.0,157.1Z "/><path d="M271.6,160.8L271.1,160.5L270.9,160.8L271.6,160.8Z "/><path d="M74.3,155.3L73.8,155.6L74.5,156.0L74.3,155.3Z "/><path d="M158.2,160.6L157.8,160.7L158.1,161.3L158.2,160.6Z "/><path d="M153.5,162.3L153.6,162.0L153.2,162.4L153.5,162.3Z "/><path d="M110.8,160.3L110.2,160.6L110.9,160.7L110.8,160.3Z "/><path d="M160.2,163.3L160.4,163.0L160.1,163.2L160.2,163.3Z "/><path d="M379.9,163.8L381.1,166.0L381.9,164.5L379.9,163.8Z "/><path d="M178.9,164.3L178.5,164.3L178.7,164.6L178.9,164.3Z "/><path d="M199.6,165.3L199.5,165.1L199.2,165.5L199.6,165.3Z "/><path d="M60.0,159.0L60.2,159.9L62.4,161.2L60.0,159.0Z "/><path d="M165.0,165.6L164.0,165.4L164.3,165.7L165.0,165.6Z "/><path d="M130.1,166.4L129.8,166.3L129.7,166.6L130.1,166.4Z "/><path d="M92.3,164.9L92.8,164.3L92.4,164.6L92.3,164.9Z "/><path d="M147.4,167.7L147.6,167.4L147.0,167.6L147.4,167.7Z "/><path d="M104.5,165.5L106.5,166.8L106.6,165.9L104.5,165.5Z "/><path d="M170.6,169.4L170.7,169.3L170.4,169.3L170.6,169.4Z "/><path d="M178.1,172.4L176.9,172.4L176.5,172.7L178.1,172.4Z "/><path d="M167.7,172.7L167.4,172.5L167.4,172.5L167.7,172.7Z "/><path d="M185.2,174.3L185.0,174.0L184.8,174.3L185.2,174.3Z "/><path d="M182.5,175.0L182.1,174.1L182.1,174.8L182.5,175.0Z "/><path d="M332.3,175.7L331.9,175.8L332.1,175.9L332.3,175.7Z "/><path d="M175.2,176.0L175.5,174.6L175.2,174.7L175.2,176.0Z "/><path d="M143.3,174.1L142.7,173.8L142.8,174.1L143.3,174.1Z "/><path d="M478.3,171.9L477.6,171.4L478.0,171.9L478.3,171.9Z "/><path d="M137.7,175.6L137.4,175.2L137.5,175.7L137.7,175.6Z "/><path d="M138.8,175.3L138.0,175.4L138.2,175.5L138.8,175.3Z "/><path d="M176.6,177.3L176.5,177.0L176.6,177.4L176.6,177.3Z "/><path d="M127.5,176.3L127.3,176.0L127.3,176.4L127.5,176.3Z "/><path d="M139.1,177.0L139.1,176.7L138.8,176.9L139.1,177.0Z "/><path d="M51.0,171.6L49.7,171.6L49.5,172.0L51.0,171.6Z "/><path d="M145.7,177.6L144.1,178.0L145.2,178.4L145.7,177.6Z "/><path d="M137.3,178.5L137.0,178.0L137.0,178.3L137.3,178.5Z "/><path d="M52.9,173.2L52.5,173.0L52.5,173.3L52.9,173.2Z "/><path d="M145.7,179.0L145.5,179.1L145.3,179.4L145.7,179.0Z "/><path d="M126.2,179.4L126.1,179.0L125.9,179.2L126.2,179.4Z "/><path d="M171.8,182.7L172.0,182.4L171.8,182.4L171.8,182.7Z "/><path d="M172.7,182.9L172.6,182.7L172.4,182.8L172.7,182.9Z "/><path d="M420.4,183.9L421.1,183.7L419.2,183.7L420.4,183.9Z "/><path d="M234.8,220.3L237.3,218.3L236.0,219.2L234.7,220.3L234.8,220.3Z "/><path d="M383.2,186.6L382.9,186.4L383.0,186.6L383.2,186.6Z "/><path d="M56.2,180.5L56.4,180.1L56.2,180.1L56.2,180.5Z "/><path d="M383.8,187.4L383.9,187.2L383.6,186.8L383.8,187.4Z "/><path d="M315.2,189.5L315.5,189.1L315.0,189.4L315.2,189.5Z "/><path d="M57.0,181.8L56.9,181.7L56.6,182.1L57.0,181.8Z "/><path d="M334.6,239.8L330.9,223.7L330.0,222.9L334.3,239.7L334.3,240.4L334.6,239.8Z "/><path d="M313.6,191.3L313.3,191.1L313.1,191.1L313.6,191.3Z "/><path d="M169.6,189.9L170.7,190.5L170.0,190.0L169.6,189.9Z "/><path d="M74.0,185.8L73.5,185.8L73.5,186.0L74.0,185.8Z "/><path d="M314.1,194.5L314.6,194.1L313.5,194.5L314.1,194.5Z "/><path d="M501.4,193.5L501.0,193.1L501.0,192.7L501.4,193.5Z M501.7,193.8L501.7,193.5L501.4,193.6L501.7,193.8Z M502.4,194.6L502.3,194.0L502.0,194.0L502.4,194.6Z M502.7,194.9L502.7,194.9L502.7,194.9L502.7,194.9Z "/><path d="M174.0,194.8L174.0,194.6L173.6,194.6L174.0,194.8Z "/><path d="M150.8,194.8L150.5,194.9L150.3,195.1L150.8,194.8Z "/><path d="M174.8,196.2L174.7,196.0L174.4,196.0L174.8,196.2Z "/><path d="M145.8,198.3L145.0,198.3L145.6,198.6L145.8,198.3Z "/><path d="M327.6,201.3L327.4,201.6L327.5,201.8L327.6,201.3Z "/><path d="M335.4,203.8L334.1,203.2L334.3,203.8L335.4,203.8Z "/><path d="M336.3,203.8L336.3,204.0L336.5,204.1L336.3,203.8Z "/><path d="M139.1,203.0L132.5,202.7L131.5,204.2L139.1,203.0Z "/><path d="M337.4,204.8L337.2,204.6L336.8,204.7L337.4,204.8Z "/><path d="M164.1,206.7L164.1,207.5L165.3,207.3L164.1,206.7Z "/><path d="M288.5,211.3L288.2,211.0L288.4,211.6L288.5,211.3Z "/><path d="M382.7,211.8L382.2,210.4L382.2,211.0L382.7,211.8Z "/><path d="M217.7,224.2L205.2,214.5L197.9,213.6L175.6,215.8L155.2,225.2L141.5,219.3L165.9,220.1L168.5,217.9L207.2,215.6L217.7,224.6L217.8,224.6L217.8,224.2L217.7,224.2Z "/><path d="M264.6,214.8L264.1,214.6L263.9,214.9L264.6,214.8Z "/><path d="M133.9,212.4L133.2,212.4L133.8,212.6L133.9,212.4Z "/><path d="M365.7,215.9L365.5,215.1L365.4,215.1L365.7,215.9Z "/><path d="M132.5,213.1L131.9,213.3L132.0,213.4L132.5,213.1Z "/><path d="M234.4,220.3L229.5,223.0L220.8,225.8L217.9,224.3L217.8,224.2L217.8,224.6L217.9,224.7L219.0,225.2L219.5,225.5L220.6,226.1L220.6,226.1L221.2,226.2L221.2,226.1L222.7,225.0L225.0,224.9L233.4,220.5L234.7,220.3L234.4,220.3Z "/><path d="M392.8,218.8L392.1,218.3L392.0,218.6L392.8,218.8Z "/><path d="M421.0,217.5L420.5,217.5L420.3,218.1L421.0,217.5Z "/><path d="M366.3,221.5L366.0,219.7L365.7,220.5L366.3,221.5Z "/><path d="M421.1,219.6L420.8,219.1L420.6,219.1L421.1,219.6Z "/><path d="M381.7,221.9L381.6,221.4L381.5,222.0L381.7,221.9Z "/><path d="M393.3,222.4L393.4,221.9L393.2,222.0L393.3,222.4Z "/><path d="M326.0,225.4L326.5,225.0L325.9,225.2L326.0,225.4Z "/><path d="M220.9,226.4L224.6,228.5L224.8,228.0L221.3,226.4L221.2,226.2L220.6,226.1L220.9,226.4Z "/><path d="M354.7,226.7L353.6,226.6L354.1,227.3L354.7,226.7Z "/><path d="M392.1,226.0L392.3,225.3L391.9,225.6L392.1,226.0Z "/><path d="M261.3,251.9L261.0,252.0L261.3,252.3L261.3,251.9Z "/><path d="M276.9,252.2L276.4,252.1L276.7,252.4L276.9,252.2Z "/><path d="M365.1,227.9L365.3,228.4L366.1,229.5L365.1,227.9Z "/><path d="M420.3,229.9L420.0,229.5L420.0,229.9L420.3,229.9Z "/><path d="M199.5,233.5L199.3,233.6L199.3,234.3L199.5,233.5Z "/><path d="M327.6,234.5L327.5,233.9L327.3,234.1L327.6,234.5Z "/><path d="M424.8,233.9L424.9,232.7L424.4,233.6L424.8,233.9Z "/><path d="M333.8,240.4L334.1,245.8L333.2,249.9L334.1,240.7L334.3,240.4L333.8,240.4Z "/><path d="M251.8,243.0L251.7,242.9L251.2,243.1L251.8,243.0Z "/><path d="M344.9,246.3L345.1,246.8L349.0,246.2L344.9,246.3Z "/><path d="M420.2,242.0L420.0,242.0L420.1,242.4L420.2,242.0Z "/><path d="M452.2,242.7L452.0,242.3L452.0,242.9L452.2,242.7Z "/><path d="M201.3,246.7L201.0,246.4L200.8,246.5L201.3,246.7Z "/><path d="M351.5,247.9L351.9,248.6L352.1,248.4L351.5,247.9Z "/><path d="M390.4,247.5L389.7,247.9L390.5,248.0L390.4,247.5Z "/><path d="M387.6,247.6L387.4,247.9L387.8,248.2L387.6,247.6Z "/><path d="M240.2,251.7L240.0,251.4L240.2,251.7L240.2,251.7Z "/><path d="M236.5,252.0L236.4,251.8L236.3,252.0L236.5,252.0Z "/><path d="M262.5,252.5L262.2,252.1L262.3,252.7L262.5,252.5Z "/><path d="M272.8,252.7L272.4,252.6L272.2,253.0L272.8,252.7Z "/><path d="M265.5,253.8L264.8,253.7L265.2,254.0L265.5,253.8Z "/><path d="M325.1,254.0L324.9,253.3L324.8,253.6L325.1,254.0Z "/><path d="M270.8,253.9L270.4,253.6L270.2,254.0L270.8,253.9Z "/><path d="M265.6,255.6L265.5,255.4L264.9,255.5L265.6,255.6Z "/><path d="M324.3,256.6L324.0,256.0L324.2,257.0L324.3,256.6Z "/><path d="M439.3,252.4L439.5,252.0L438.3,251.9L439.3,252.4Z "/><path d="M152.6,254.1L151.1,255.0L151.8,254.6L152.6,254.1Z "/><path d="M320.5,257.9L320.2,257.4L320.3,258.0L320.5,257.9Z "/><path d="M265.4,258.6L265.5,258.5L265.5,258.2L265.4,258.6Z "/><path d="M246.7,258.9L246.6,258.6L246.5,259.1L246.7,258.9Z "/><path d="M321.4,258.7L321.4,258.4L321.3,258.6L321.4,258.7Z "/><path d="M334.2,260.3L334.0,259.8L333.7,260.3L334.2,260.3Z "/><path d="M388.2,259.5L387.9,259.4L387.7,259.6L388.2,259.5Z "/><path d="M384.1,260.0L384.0,259.9L383.7,260.1L384.1,260.0Z "/><path d="M443.6,260.1L444.1,259.3L443.4,259.8L443.6,260.1Z "/><path d="M479.2,265.4L474.2,262.2L459.9,267.9L475.0,264.7L479.2,265.4Z "/><path d="M451.0,260.7L451.0,260.6L450.7,260.7L451.0,260.7Z "/><path d="M278.2,267.8L277.7,267.4L278.2,267.9L278.2,267.8Z "/><path d="M401.6,280.1L403.7,271.5L402.1,276.9L401.6,280.1Z "/><path d="M248.9,273.7L248.8,273.4L248.7,273.8L248.9,273.7Z "/><path d="M273.4,276.2L272.7,275.9L272.4,276.2L273.4,276.2Z "/><path d="M278.1,280.5L277.5,280.9L277.8,280.9L278.1,280.5Z "/><path d="M318.3,281.2L318.7,280.8L318.6,280.5L318.3,281.2Z "/><path d="M313.9,281.0L313.9,280.7L313.5,281.2L313.9,281.0Z "/><path d="M243.1,283.0L243.1,282.7L242.8,283.1L243.1,283.0Z "/><path d="M402.5,281.3L402.8,281.8L403.2,281.8L402.5,281.3Z "/><path d="M242.5,286.1L242.7,284.7L242.6,284.4L242.5,286.1Z "/><path d="M435.9,280.7L436.1,280.4L435.3,280.7L435.9,280.7Z "/><path d="M432.9,281.0L432.1,280.6L432.1,280.7L432.9,281.0Z "/><path d="M172.0,336.3L171.7,335.9L171.7,336.1L172.0,336.3Z "/><path d="M247.5,285.6L248.1,285.9L248.4,285.9L247.5,285.6Z "/><path d="M483.8,281.6L483.5,281.9L483.7,282.1L483.8,281.6Z "/><path d="M329.5,290.7L329.4,289.7L329.3,290.2L329.5,290.7Z "/><path d="M415.4,289.3L415.3,290.2L415.3,290.4L415.4,289.3Z "/><path d="M409.1,291.3L408.6,290.9L409.1,291.4L409.1,291.3Z "/><path d="M264.5,294.2L264.4,293.9L264.1,293.8L264.5,294.2Z "/><path d="M414.8,292.8L414.5,292.6L414.5,293.0L414.8,292.8Z "/><path d="M323.8,298.6L324.9,295.4L324.1,295.6L323.8,298.6Z "/><path d="M318.3,296.3L317.5,296.1L317.9,296.4L318.3,296.3Z "/><path d="M412.5,293.5L412.0,293.4L412.4,293.7L412.5,293.5Z "/><path d="M273.4,298.5L275.6,297.2L275.0,297.8L273.4,298.5Z "/><path d="M271.5,299.4L271.4,299.1L271.4,299.6L271.5,299.4Z "/><path d="M456.8,297.7L455.1,294.2L455.0,296.7L456.8,297.7Z "/><path d="M378.3,302.2L378.0,301.7L377.8,301.8L378.3,302.2Z "/><path d="M288.7,305.0L288.4,305.3L290.8,305.7L288.7,305.0Z "/><path d="M445.7,309.1L443.8,301.1L442.6,300.6L445.7,309.1Z "/><path d="M310.6,306.3L310.2,306.2L310.5,306.3L310.6,306.3Z "/><path d="M375.1,305.1L375.2,304.8L374.8,304.6L375.1,305.1Z "/><path d="M292.1,308.3L291.6,307.9L291.6,308.1L292.1,308.3Z "/><path d="M404.5,310.2L404.6,307.7L404.8,308.1L404.5,310.2Z "/><path d="M243.1,313.5L242.7,313.1L242.8,313.6L243.1,313.5Z "/><path d="M435.9,311.8L436.4,310.9L435.9,310.9L435.9,311.8Z "/><path d="M406.4,317.6L403.5,315.2L404.8,317.1L406.4,317.6Z "/><path d="M443.0,315.1L442.7,313.6L441.6,315.3L443.0,315.1Z "/><path d="M287.5,319.0L287.6,318.6L287.1,319.2L287.5,319.0Z "/><path d="M366.5,318.1L366.0,318.3L366.2,318.4L366.5,318.1Z "/><path d="M487.0,315.5L486.9,316.5L487.7,316.8L487.0,315.5Z "/><path d="M308.1,327.4L308.4,326.9L307.9,327.0L308.1,327.4Z "/><path d="M172.8,331.2L172.5,331.1L172.8,331.5L172.8,331.2Z "/><path d="M294.4,336.1L295.0,333.4L294.0,335.4L294.4,336.1Z "/><path d="M293.4,334.5L293.1,334.0L293.2,334.2L293.4,334.5Z "/><path d="M488.1,329.7L487.1,329.0L486.9,329.4L488.1,329.7Z "/><path d="M298.6,337.2L294.6,340.5L297.8,338.2L298.6,337.2Z "/><path d="M443.4,346.2L443.2,345.7L443.2,346.3L443.4,346.2Z "/><path d="M407.6,352.3L407.8,351.8L407.3,351.9L407.6,352.3Z "/><path d="M464.3,392.5L465.9,392.7L467.4,390.3L464.3,392.5Z "/><path d="M383.2,339.6L380.9,339.5L381.2,340.2L383.2,339.6Z "/><path d="M226.8,341.5L226.5,341.2L226.8,341.6L226.8,341.5Z "/><path d="M440.1,345.6L439.9,342.2L439.8,345.6L439.8,345.9L440.0,345.8L440.1,345.6Z "/><path d="M304.4,344.9L300.0,345.4L304.2,345.1L304.4,344.9Z "/><path d="M196.8,349.0L193.7,346.8L193.1,347.4L196.1,349.1L196.1,349.1L196.8,349.1L196.8,349.0Z "/><path d="M443.3,345.3L443.2,344.5L443.0,345.2L443.3,345.3Z "/><path d="M192.2,347.8L191.7,348.1L192.8,349.0L193.3,349.0L192.2,347.8Z "/><path d="M450.9,344.8L450.8,344.6L450.6,345.1L450.9,344.8Z "/><path d="M171.3,348.2L171.0,348.0L170.8,348.3L170.5,348.2L170.3,348.3L171.4,348.4L171.3,348.2Z "/><path d="M170.2,348.5L170.6,350.9L171.5,348.5L171.4,348.4L170.3,348.3L170.2,348.5Z "/><path d="M214.8,374.3L204.4,373.6L195.6,363.7L193.6,349.3L193.3,349.0L192.8,349.0L193.3,349.6L192.8,358.0L203.9,373.6L214.8,374.6L214.9,374.7L214.9,374.4L214.8,374.3Z "/><path d="M205.8,355.3L203.3,355.0L203.0,354.2L197.0,350.6L196.8,349.1L196.1,349.1L196.3,349.2L202.2,353.0L202.8,354.7L206.0,355.9L206.0,355.1L205.8,355.3Z "/><path d="M439.8,346.0L439.8,346.1L440.0,345.9L440.0,345.8L439.8,345.9L439.8,346.0Z "/><path d="M443.6,347.1L443.5,346.5L443.1,346.7L443.6,347.1Z "/><path d="M403.0,348.8L403.0,349.4L403.5,349.3L403.0,348.8Z "/><path d="M408.3,350.8L407.7,349.3L407.4,349.1L408.3,350.8Z "/><path d="M303.5,353.4L303.2,353.6L304.9,355.3L303.5,353.4Z "/><path d="M333.5,356.0L333.9,355.4L334.1,355.3L333.8,355.8L333.5,355.9L333.5,356.0Z "/><path d="M215.1,357.9L209.9,359.5L206.1,355.0L206.0,355.1L206.6,355.2L206.4,357.0L209.7,359.7L215.1,358.2L215.2,358.2L215.2,357.9L215.1,357.9Z "/><path d="M170.1,354.7L169.9,354.1L169.6,354.6L170.1,354.7Z "/><path d="M333.2,355.9L322.6,359.9L326.0,357.1L333.3,356.1L333.5,355.9L333.2,355.9Z "/><path d="M215.6,358.1L223.2,359.2L215.7,357.8L215.2,357.9L215.2,358.2L215.6,358.1Z "/><path d="M405.2,358.2L406.0,355.9L405.8,357.6L405.2,358.2Z "/><path d="M378.8,359.6L378.3,359.2L378.5,359.6L378.8,359.6Z "/><path d="M321.4,360.9L321.5,360.6L321.3,360.6L321.4,360.9Z "/><path d="M172.8,360.6L172.7,360.2L172.4,360.5L172.8,360.6Z "/><path d="M404.0,361.9L403.4,360.7L403.5,361.7L404.0,361.9Z "/><path d="M319.2,364.4L318.1,366.4L319.6,364.8L319.2,364.4Z "/><path d="M397.4,362.7L397.0,362.8L397.3,363.0L397.4,362.7Z "/><path d="M322.0,369.0L321.3,368.0L320.7,368.3L322.0,369.0Z "/><path d="M356.1,369.3L357.3,369.4L356.6,369.5L356.1,369.3Z "/><path d="M243.5,370.5L242.7,370.4L243.3,370.6L243.5,370.5Z "/><path d="M221.5,378.2L218.0,376.2L217.1,375.3L215.3,374.6L214.9,374.4L214.9,374.7L215.0,374.7L216.1,376.2L217.8,375.6L221.2,378.4L221.7,378.4L221.5,378.2Z "/><path d="M171.3,377.2L167.7,375.4L168.1,379.8L171.3,377.2Z "/><path d="M383.5,376.0L382.7,376.0L383.1,376.2L383.5,376.0Z "/><path d="M221.8,378.6L222.1,380.6L223.0,381.2L222.0,378.6L221.7,378.4L221.8,378.6Z "/><path d="M455.3,376.4L455.7,375.8L455.2,376.0L455.3,376.4Z "/><path d="M401.5,391.0L401.8,378.4L400.1,381.0L401.5,391.0Z "/><path d="M332.6,381.3L332.0,381.1L332.5,381.4L332.6,381.3Z "/><path d="M330.4,382.2L330.3,382.1L330.0,382.4L330.4,382.2Z "/><path d="M451.4,381.2L449.8,383.3L450.9,384.6L451.4,381.2Z "/><path d="M167.8,381.4L167.5,381.7L167.3,381.8L167.8,381.4Z "/><path d="M167.2,387.0L170.3,384.8L166.3,383.1L167.2,387.0Z "/><path d="M446.3,383.8L445.8,383.3L445.4,383.4L446.3,383.8Z "/><path d="M324.5,388.6L323.9,389.7L324.5,388.8L324.5,388.6Z "/><path d="M447.5,385.4L447.6,384.4L447.2,385.5L447.5,385.4Z "/><path d="M323.5,391.4L323.5,390.8L323.3,390.8L323.5,391.4Z "/><path d="M229.7,392.0L228.3,392.1L229.2,392.3L230.0,392.0L229.7,392.0Z "/><path d="M247.9,399.7L240.3,397.6L238.7,394.2L230.2,392.0L230.0,392.0L230.5,392.1L239.9,397.5L241.6,396.9L248.3,400.6L248.5,400.7L247.9,399.7Z "/><path d="M450.8,389.3L449.4,388.8L449.2,388.7L450.8,389.3Z "/><path d="M167.0,391.4L165.5,391.1L165.4,391.9L167.0,391.4Z "/><path d="M188.5,397.2L188.1,396.9L187.7,397.0L188.5,397.2Z "/><path d="M248.8,400.8L251.3,402.3L255.7,401.1L249.0,400.8L248.5,400.7L248.8,400.8Z "/><path d="M455.6,397.5L452.4,400.5L453.4,399.6L455.6,397.5Z "/><path d="M187.6,401.3L187.4,401.3L187.5,401.7L187.6,401.3Z "/><path d="M211.9,403.4L211.3,403.3L211.8,403.6L211.9,403.4Z "/><path d="M409.0,403.3L408.5,403.4L407.4,403.4L409.0,403.3Z "/><path d="M405.1,407.1L401.1,410.2L401.3,413.2L404.8,407.4L404.8,407.4L405.1,407.1L405.1,407.1Z "/><path d="M477.0,404.5L476.6,403.2L476.6,404.4L477.0,404.5Z "/><path d="M405.7,407.4L409.5,407.8L408.4,407.4L405.4,407.1L405.1,407.1L404.8,407.4L405.7,407.4Z "/><path d="M161.0,410.1L161.4,409.5L160.7,409.2L161.0,410.1Z "/><path d="M477.1,405.8L476.8,405.4L476.4,406.1L477.1,405.8Z "/><path d="M322.3,427.2L322.3,426.6L320.2,427.6L322.3,427.2Z "/><path d="M393.6,431.5L393.7,430.8L392.7,429.9L393.6,431.5Z "/><path d="M156.0,431.5L154.4,431.8L155.0,432.2L155.8,431.9L156.5,431.5L156.0,431.5Z "/><path d="M189.3,417.0L189.2,416.9L189.0,417.1L189.3,417.0Z "/><path d="M400.7,416.5L400.4,416.7L400.4,417.0L400.7,416.5Z "/><path d="M400.3,419.5L400.4,420.0L399.8,422.0L400.3,419.5Z "/><path d="M180.6,418.9L180.3,418.6L180.2,418.6L180.6,418.9Z "/><path d="M159.1,420.1L158.8,419.2L158.5,419.7L159.1,420.1Z "/><path d="M325.8,424.7L325.0,425.5L325.9,425.6L325.8,424.7Z "/><path d="M194.4,424.5L194.1,423.9L194.0,423.9L194.4,424.5Z "/><path d="M388.6,424.4L388.2,423.9L388.1,424.1L388.6,424.4Z "/><path d="M390.6,424.8L389.4,424.2L389.2,424.7L390.6,424.8Z "/><path d="M402.1,425.0L401.3,423.8L401.8,424.4L402.1,425.0Z "/><path d="M380.5,426.9L380.3,426.9L380.2,427.3L380.5,426.9Z "/><path d="M380.1,427.8L379.7,428.4L380.2,428.2L380.1,427.8Z "/><path d="M398.2,427.3L399.4,431.1L399.5,432.0L398.2,427.3Z M395.6,431.5L395.0,431.5L395.5,431.2L395.6,431.5Z "/><path d="M387.2,428.0L387.2,429.3L387.8,429.3L387.2,428.0Z "/><path d="M156.3,427.6L156.1,427.8L156.5,427.9L156.3,427.6Z "/><path d="M384.0,428.7L385.4,431.3L385.1,428.8L384.0,428.7Z "/><path d="M373.1,428.8L372.0,429.8L372.9,430.0L373.1,428.8Z "/><path d="M416.8,427.3L421.5,435.8L424.0,433.6L416.8,427.3Z "/><path d="M438.3,427.0L438.9,426.4L438.8,426.3L438.3,427.0Z "/><path d="M383.3,429.4L384.2,433.3L384.6,430.2L383.3,429.4Z "/><path d="M157.8,431.7L163.8,430.5L164.6,429.9L158.2,431.6L156.5,431.5L157.8,431.7Z "/><path d="M316.3,431.0L315.6,431.0L315.8,431.2L316.3,431.0Z "/><path d="M371.3,429.9L370.7,430.8L371.1,431.2L371.3,429.9Z "/><path d="M415.8,429.4L415.9,429.1L415.4,428.5L415.8,429.4Z "/><path d="M370.5,431.9L368.2,431.9L368.4,434.1L370.5,431.9Z "/><path d="M388.3,430.6L385.4,432.1L388.5,433.9L388.3,430.6Z "/><path d="M395.6,431.5L395.5,431.2L395.0,431.5L395.6,431.5Z "/><path d="M383.8,433.3L382.7,432.3L383.1,433.1L383.8,433.3Z "/><path d="M414.6,431.7L415.3,433.5L415.1,433.0L414.6,431.7Z "/><path d="M390.7,433.2L390.7,433.7L391.1,434.0L390.7,433.2Z "/><path d="M362.4,435.8L356.9,440.1L357.2,441.8L362.4,435.8Z "/><path d="M368.1,434.3L364.9,436.4L367.3,435.3L368.1,434.3Z "/><path d="M414.5,433.8L414.0,433.2L414.1,433.8L414.5,433.8Z "/><path d="M408.2,435.0L407.8,434.4L407.6,434.5L408.2,435.0Z "/><path d="M424.0,435.2L424.4,434.9L424.3,433.7L424.0,435.2Z "/><path d="M409.4,435.5L409.0,435.2L409.2,435.3L409.4,435.5Z "/><path d="M402.9,437.5L402.5,436.8L402.3,437.3L402.9,437.5Z "/><path d="M403.1,437.9L403.3,436.9L403.2,437.0L403.1,437.9Z "/><path d="M196.1,439.7L195.6,439.7L195.7,439.8L196.1,439.7Z "/><path d="M406.4,437.7L406.8,438.1L407.8,437.6L406.4,437.7Z "/><path d="M408.2,438.5L406.8,439.2L409.2,439.0L408.2,438.5Z "/><path d="M336.0,456.8L334.6,455.3L334.9,457.3L336.0,456.8Z M335.7,457.0L335.7,457.6L335.5,457.1L335.7,457.0Z "/><path d="M339.0,454.7L338.6,454.3L338.3,454.5L339.0,454.7Z "/><path d="M338.7,457.6L337.6,455.1L337.0,455.1L338.7,457.6Z "/><path d="M253.6,458.5L253.5,458.7L253.8,459.0L253.6,458.5Z "/><path d="M336.4,466.6L337.0,470.4L337.6,466.3L336.4,466.6Z "/><path d="M196.8,467.6L196.5,466.8L196.4,467.0L196.8,467.6Z "/><path d="M199.4,468.5L199.1,468.3L199.2,468.7L199.4,468.5Z "/><path d="M216.9,474.0L216.8,473.6L216.6,473.9L216.9,474.0Z "/><path d="M336.9,479.0L336.1,477.8L336.8,480.3L336.9,479.0Z "/><path d="M291.5,484.1L291.3,483.9L290.7,484.6L291.5,484.1Z "/><path d="M295.4,486.1L295.4,485.3L294.9,485.3L295.4,486.1Z "/></g></svg>
